<svg xmlns="http://www.w3.org/2000/svg" width="512" height="512" viewBox="0 0 135 135"><path d="M81.6 31q-1.2-1.2-2.2-2.6-1.3-2.6-1.3-5.7-.1-2.2.3-4.3c.9-3.1 4-5.3 7.2-5.4 3.2 0 6.4 1.8 8 4.5a6 6 0 0 1 4-5.6c3-1 6.5.8 8.1 3.6s1.5 6.3.7 9.4a20 20 0 0 1-10 12.3c-5.1 2.5-11.3-3-14.8-6.3M42.2 51.7a22 22 0 0 0-7.8 22.1C36.5 81.8 45 88 53 86.5q4.5-.9 7.8-3.7A19.3 19.3 0 0 0 62 54a13 13 0 0 0-5.3-3.4c-3.4-1-7-.2-10.3.6q-2.4.4-4.2 2c-1.1 1-1.5 3-.3 4" style="fill:var(--icon-accent,#ffcb05)"/><path d="M53 91.3a22 22 0 0 0 19-25.7 21 21 0 0 0-21.8-18c-7.8.2-12.6 4.3-12.1 4.9s4.3-3 12.1-3c9.5 0 17.7 6 19.6 16.5a20 20 0 0 1-17 23.2 20.6 20.6 0 0 1-22.8-25 23 23 0 0 1 9.6-13.7c.8-.6 2.2-1.3 2.1-1.4l-2.4 1A23 23 0 0 0 28.7 64q-1.7 7 .8 13c3.5 9 13 15.8 23.6 14.3M91.5 131c-.1-3.1-2-9.8-6.6-16.4Q77.3 104 65.4 99.9a47 47 0 0 0-43 7.6 44 44 0 0 0-14 23.1c.2 0 1-3 3.2-7.3s6.1-10 12-14.6a46 46 0 0 1 41-6.6A40 40 0 0 1 89 126.6l1.5 4.2c-12.8-1.5-56.8-.6-76.2-.4-7.6 0-8.2.3 0 .9 21 1.3 74.2 1 74.3 1 4 0 4.2-.4 4.2-.7s0-.4-1.3-.6m-32-85.9c0 .7.2 1.2 8.7 1.2 4.6 0 14.5-.6 14.5-1.2s-10-1.2-14.5-1.2c-8.5 0-8.7.6-8.7 1.2"/><path d="M125.7 15a41 41 0 0 0-1.8-9.9c0-.3 0-.6-3.1-1A236 236 0 0 0 59 5.4c-.3 0-.6 0-1 1.8-1 7-.4 20.7.4 27.9.6 5.1 1.4 9.2 1.7 9.2.5 0-.2-4.8-.3-24.5V7.4L59.5 6l15-.6c24.7-1 40.9.3 46 .3q3 0 3.1-.2c-.1.7.2 4.8.3 9.7l.3 16c0 7.5-.2 11.3 0 13.3 0 2 .3 2 .6 2.1.3 0 .6 0 1-2a161 161 0 0 0-.2-29.5"/><path d="M118.2 46.1c-3.1 0-15.5-.5-18.7-.2q0-1-.3-1c-.8-.2-1.2 1-3 3.7A25 25 0 0 1 79 60c2.5-1 5-3.9 5.4-8 .2-2 0-4.5-.7-6-.3-.8-.6-.7-1-.7q-.5-.1-.6 1c0 1 .2 3.3 0 5.4-.6 7-5.1 7.8-5 8.4l.3.1-.5.3c0 .2 3.2.8 7 0a21 21 0 0 0 15.3-12.8 93 93 0 0 0 25.6-.9c0-.3-2.9-.4-6.5-.6M87.5 14c3.6 1 4.8 4 5 3.9.2 0 0-1.4-1.5-3a8.5 8.5 0 0 0-12.3 0c-5 5.4-4 17.2 11.3 23.1 2.1.8 2.3.6 2.4.3v-.1c1.4 0 5.2-2 6.8-3 7.8-4.6 10.3-11.1 9.4-16.2-1-5.4-6.6-9.5-11.6-7.3a8 8 0 0 0-3 2.4c-1.4 1.8-1.4 3.2-1.3 3.2.3 0 1.1-3.2 4.7-4.4a6 6 0 0 1 3.9 0c2.6 1 4.8 3.7 5.2 6.5a12 12 0 0 1-1.7 7.5c-3.8 6.2-11.6 9-12.8 10.5-2.1-1.8-8.9-4.3-12.2-10-1.1-1.7-2-4.4-1.5-7.3 1-5 5.5-7.1 9.2-6M36.2 39c1.9 1 6.1 2.7 6.4 2.2S39.2 38 37.3 37c-3.4-1.8-3.7-1.4-4-.8s-.5 1 2.9 2.9m2.7-8.8c2.3 2 7.5 6 8 5.6s-4.2-5.3-6.5-7.3c-4.1-3.8-4.5-3.5-5-3s-.7 1 3.5 4.7m11.4.7c.6-.3-.6-6.7-1.4-9.6-1.5-5.4-2-5.4-2.7-5.2s-1 .4.4 5.8c.9 3 3.1 9 3.7 9m44.2 77.5c-.4.2.2 2.3 2 9q1 3.5 1.4 4.4.4.8 1 .5.5.1.6-.8.2-1-.7-4.8c-1-3.8-3.8-8.5-4.3-8.3m9.2 3q-1-1.6-1.5-1.5c-.5.2.4 4.5.5 5 .6 2.6 1 2.7 1.6 2.6s1.3-.3.6-3.2q-.3-1.3-1.2-3"/><path d="M51.9 79.1q0 .3-1-.2c-.7-.5-2-1.5-4.2-4a24 24 0 0 1-3.4-6.2 11 11 0 0 1-1-4.2c.2 0 .8 1.7 1.8 3.8a31 31 0 0 0 3.5 5.8c2 2.5 3.3 3.5 3.9 4.1q.6.8.4.9M87.3 29q0 .3-.8.2l-1.3-.6a10 10 0 0 1-3.6-3.8q-.7-1.2-1-2.6c-.4-1.7-.2-3.1 0-3.1.1 0 .2 1.3.8 2.9a13 13 0 0 0 2.4 4c1.5 1.6 2.6 2 3 2.4q.6.5.5.7" style="fill:var(--icon-surface,#fff)"/></svg>