<svg xmlns="http://www.w3.org/2000/svg" width="512" height="512" viewBox="0 0 135 135"><path d="M94.7 52.2c1.7.5 3.4-.1 5-.6q4-1 8-1.5.4 0 .5.3l-.1.2c-2 2.8-4.8 5.3-5.3 8.6a12 12 0 0 1 5.7 5.1l-9.2.4q-1 0-1.9-.2l-.9-.4c-1.6-1-4.4-3-4.6-5-.2-2.1 2-5 2.8-6.9m-.8-16.8.1-.5.6-.4q5.3-2.6 9.9-6c.2 2.8-.5 5.4-1.2 8q3.8.9 7.3 2.7-1.5 1.6-3.7 2.4l-2.5.9c-.8.4-1.6 1.1-2.5 1.3q-1.5.1-2.7-.5c-1.4-.6-4-1-5.1-2.3s-.6-4.1-.2-5.6m-57.1 5.1q.3-2.5 1.9-4.4c1.4-1.3 3.8-1.5 5.7-.8s3.4 2.2 4.7 3.7a43 43 0 0 1 8.7 17A95 95 0 0 1 60 88c-.3 1.5-.9 3.1-2.3 3.7-1.8.7-3.6-.7-5-2a56 56 0 0 1-16-49.2" style="fill:var(--icon-accent,#ffcb05)"/><path d="M44.4 22.7c1.8 1.8 4 2 5.5.6 1.3-1.1 1.8-3 2-4.7.7-6.1-1-10.9-1.4-10.7-.2 0 .7 4.1 0 9.2-1.3-3.5-6.3-2.7-5.8 1.7-1.7-5.2.4-14.1 3-13.3 1 .3 1.9 1.9 2.3 2.2q.3.3.5.2t.3-.5q.2-.4-.6-2c-1.5-2.6-4-2.5-5.5-.8C42 7.3 41 14 42.2 18.3q.5 2.5 2.2 4.4m3.4-6.6q.8.3 1.3 1.6-1.3-1.7-3-.9v-.2q.8-.7 1.7-.5m.5 4.4c-.3.7-1.3.5-1.5 0q-.3-1 .3-1.4t.8.1q.5.9.4 1.1zm-2.2-1.7c.4-1.2 1.4-1.3 2-.4 0 0-1.5-.3-2 .5"/><path d="M109.5 37.1c-1.4-.4-3.7-1-5.3-1 1.4-2.9 1.7-6.7 1.3-8v-.6c-.4-.5-.7-1-5.3 1.4a50 50 0 0 0-7.2 4.7c-.4.1-.8.8-1 3.4-.2 1.4-.2 4.3 0 5.5-2.5.4-12.2 5.2-28.3 12.3a79 79 0 0 0-10-22.2c-4-5.8-10.3-12.7-16.9-10.4 1.3-3.1 0-8-1.3-11.2q-1.4-2.9-1.8-2.8c-.2.2 1.8 4 2 9a3 3 0 0 0-2.5-2c-3.2-.4-5.4 4.8-1.7 7.5-2.4-1-3.7-4.2-4.1-6.8-.5-2.4-.5-6.6 1-8.6 1.8-2.1 4 .6 4.8 1h.5q.3-.2.2-.6a5 5 0 0 0-3.3-3q-1-.3-2 0c-5.5 1.8-5.2 16 1.4 19.6-3.1 1.4-4.2 4-5 7.3a82 82 0 0 0-2.8 26.2q1 16.6 9.2 30.6c4 7.3 8.3 14.8 16.3 17.3-1.3 2.7-7.2 21-7.4 21.7q-.5 2.2 1.3 3.7.8.6 1.6.5l2.6-.5a4 4 0 0 0 2.7-3l.3-1.3c1.6-9.7 3.8-18.3 4-20.2q2.6 0 4.8-.7c.2 3.4 2.9 17.4 3.5 20.7a4 4 0 0 0 2.3 2.9c2.2 1 5.2 0 5.8-2.6.4-1.4 0-2.3-.2-3-1.1-3.6-5.3-17.2-7-20.3 8.9-6.8 6.3-30.4 3-41.2 4 0 22-.4 25.4-1.7a19 19 0 0 0 6.6 4.7c.6 1.1 10 .3 12.4-1q.4 0 .6-.4.3-.3.1-1c-.4-.8-3.6-4-5.7-5a16 16 0 0 0 4.6-6.8q.4-.4.2-.7c0-.6-.2-1.1-5.5-.5-2.4.2-7 1-8.5 1.7-1.4-.2-4.5 6-4.9 7.9-2-.5-17.7.4-25.4.8l-.7-3.6a236 236 0 0 0 28.4-13.4 17 17 0 0 0 8.1 2c1.1 1 10.2-3.6 11.2-5.4q1.1 0 1-.7c.1-.6.2-1-3.4-2.2m-3 25.4 1.3 1.1c-1.9 0-8.9-.3-10.6.6-1-1.4-3-3.2-4.6-4.3q2.1 0 4.7-.4.8 1.1 1.7 1.9c1.4 1.1 1.6 1 1.8.7.2-.2.3-.5-1-1.6q-.7-.6-1.6-1l5.2-.8c.2.3 2.2 2.9 3.1 3.8m-11.9-6.9q1.7-2.6 1.4-3.1c2.6.2 8 0 11.3-.7-.8.7-5 5-5.2 6l-4.8.6c.7-.4 1.5-1.4 1.9-2.1.8-1.7.5-1.8.2-2-.5-.1-.6.2-2 3q-.5.9-.5 1.2c-1.8.2-4 .6-5.2 1zM33.1 19l1.4.1q.5.4.6.8c-.7 2.2-3.7 1-3.3-.2q.4-.6 1.3-.7m1.5-1.1q-1.5-.5-2.8.3 1.3-1.6 2.8-.3m-.7-1.3c-1.6-.3-3 .9-3 2.5l-.2.6v.1c-.4-2 1.2-4.1 3.2-3.2m12.4 110.8q-.4 1.3-1.2 1.6l-2 .4q-.5 0-.7-.7c-.2-.7-.2-.1 2.6-10.4 1.6-6 2.8-11 3-12.5q1.8.5 3.5.7c-2.7 5.7-5.1 20.6-5.2 21m-1.9-25.7c-4.9-3.3-8.1-9.3-11-14.4A75 75 0 0 1 26 31.8c.7-3.2 1.6-5.7 4.6-7.2q1 .4 2 .4h.4c-13 15.7 2.4 72.5 21.3 79.6-3.3.1-7-.9-9.9-3m22.4 22.8c.3.9.4 1.2.3 1.8-.5 1.9-3.5 1.9-4-.2-.8-3.2-4-17.2-5.2-20.3 2-.6 2.9-1.4 3-1.5.7 3.8 4.7 16.5 5.9 20.2m-.2-49.9c.7 7.6.8 20.4-4 26.4-2.6 3.1-6.6 3.7-11.6-.4a62 62 0 0 1-14.8-25 96 96 0 0 1-5.6-34c1.1-25 15.5-22.7 27.4 3 1.7 3.7 3 7 4.3 10.8l-4.6 2-2.5-7.2C46.4 28.4 35.4 27 36.2 48c.4 7 2.1 15.8 5.2 24.8 8.7 25.1 20.8 29.7 20.8 10-.1-10.7-4-22.9-3.2-19.3a87 87 0 0 1 2.5 19.3c-.2 13.8-6 15.6-13.3 2.8a94 94 0 0 1-10.8-37.7c-.9-21.5 10.3-17.3 19.6 9.8l-3.2 1.4c-2.3-6.4-5.9-10.8-8.7-10.4-3.4.5-4.4 7.7-2.3 16.2 2 8.5 6.5 15 9.9 14.5s4.4-7.7 2.3-16.2l-.2-.9h3.8l.3.5v-.4h6c.6 3.6 1.3 7.3 1.7 12.2M54.3 60.4l3.3-1.1.5 1.5-3.6.3zm9.8 0-5.4.4-.5-1.8 4.7-1.7zm40.2-31.1c-.4 1-2.5 6.4-2.2 7.5a82 82 0 0 0-9 5c.5-1.3 1-3.4 1.1-4.6q.4-2.9 0-3.3c2.5-.7 7.5-3 10.1-4.6m-3.7 15a25 25 0 0 0-6.3-2.4l4.9-2.3 2.4 1c1.6.4 1.7.2 1.8-.1s.1-.6-1.5-1L100 39l3.6-2c1.6.8 4.7 2.3 7.2 2.8-.5.1-9 3-10.2 4.4"/><path d="M60.2 34q.5 0 1.4-1.5l1.5-2.6c1.4-2.5 1.1-2.8.6-3.2q-.3-.3-1 0-.5.1-1.6 2-.6 1.3-1 3.2c-.2 1-.2 2 0 2.1m3.9 2.5q.3.2 2.2-1c5.6-3.2 6.4-3.5 6-4.5q-.2-.5-.8-.6-.8-.1-3.1 1.3-1.6.9-3.1 2.6t-1.3 2.2M70 40c-1.3 0-3.9 1-3.8 1.6 0 .6 2.8.8 4 .6 2.3-.3 2.3-.8 2.2-1.4s-.2-1.2-2.4-.9M99.2 36c.3-1.6 0-1.7-.3-1.8-.3 0-.6 0-.8 1.6-.2 1-.2 2.9 0 3 .4 0 1-1.9 1.1-2.8"/><path d="M57.9 79.7q.2 0 .5.3.5.5.1 2.7a5 5 0 0 1-1.9 2.6q-1.7 1-1.9.5l1.4-1.1q1-1.2 1.3-2.3.3-1.8.2-2.2t.3-.5M48.5 45q-.2.1-.5-.2l-.6-.8a4 4 0 0 0-1.5-1 3 3 0 0 0-3.1.4c-1 .6-1.4 1.6-1.6 1.6-.1 0 0-1.3 1.1-2.2q.9-.7 2-1 1.2-.1 2 .2 1.4.7 1.9 1.3l.5 1.1q.1.7-.2.6" style="fill:var(--icon-surface,#fff)"/></svg>