<svg id="icon" enable-background="new 0 0 135 135" height="512" viewBox="0 0 135 135" width="512" xmlns="http://www.w3.org/2000/svg"><g id="Mail_Notification"><g><g><g><g><path d="m35.8383331 40.9507523c-4.7569523-4.9072037-5.7946529-12.3351364-5.4444141-19.1605721.1231213-2.3993511.438324-4.9281521 1.8990765-6.8355703 1.7093315-2.2320032 4.804451-3.1673403 7.5633812-2.6269999 2.7589264.5403404 5.1508369 2.3991461 6.7181168 4.7330875s2.3719635 5.1106262 2.7361832 7.8982773c.5517426 4.2229118.0548706 8.775095-2.4268532 12.2360859s-7.2847023 5.4412117-11.205658 3.7788391" style="fill:var(--icon-surface,#fff)"/></g></g><g><g><path d="m59.3082504 40.2001572c-4.7569542-4.9072037-5.7946548-12.3351345-5.444416-19.1605701.1231232-2.3993511.438324-4.928154 1.8990784-6.8355713 1.7093315-2.2320032 4.804451-3.1673403 7.5633812-2.6269999 2.7589264.5403404 5.1508331 2.3991461 6.7181168 4.7330866s2.3719635 5.1106281 2.7361832 7.8982773c.5517426 4.2229118.0548706 8.7750988-2.426857 12.2360859-2.48172 3.4609909-7.2846985 5.4412155-11.205658 3.7788391" style="fill:var(--icon-surface,#fff)"/></g></g></g><g><g><g><path d="m110.2789078 122.1940308c-.6968002.4172821-1.6398849.1012802-2.369072.4589844-.8004608.392662-1.0332184 1.4952545-.7171936 2.3289566s1.0321045 1.4442749 1.7542648 1.9671707c.5144501.3724976 1.0742188.73069 1.7058792.7971725 1.198494.1261368 2.3035126-.9121475 2.548317-2.0921326.1748962-.8430405-.0201492-1.767746-.5668793-2.4328766-.5467224-.6651382-1.4471817-1.038765-2.2970047-.9004974-.3488007.0567474-.7585373.3556061-.6123352.6773376" style="fill:var(--icon-accent,#ffcb05)"/></g></g><g><g><path d="m83.0739365 94.2937012c-.5992584-2.8208923-.9811249-5.910202.3557816-8.4654388.7531357-1.439476 1.985321-2.5644684 3.2474823-3.5873489 1.2090836-.979866 2.486412-1.9057083 3.9292374-2.4890518 3.7017059-1.4966278 8.0365067-.5090179 11.4274673 1.5990372 3.3909607 2.1080627 6.0254517 5.2106705 8.60112 8.2616501 1.5101929 1.7888794 3.0378952 3.6047058 4.0327835 5.7238922.7084351 1.5090103 1.1306534 3.1400604 1.8464737 4.6455765 1.0923996 2.2975311 2.873024 4.2624359 5.0522232 5.5750885-2.1136017 1.2516479-4.7540817.9058456-7.2098389.9621735-2.5962296.0595474-5.1585617.6140442-7.6522293 1.3390198-3.4946136 1.015976-6.8889313 2.3751755-10.1221085 4.0455017-1.7964401.9280777-6.7779999 5.2883377-8.5646133 4.1444016-1.9729767-1.2632523-3.9934006-9.200531-4.4445038-11.3079147-.8456497-3.9505313.3402786-6.4944843-.4992752-10.4465869z" style="fill:var(--icon-accent,#ffcb05)"/></g></g><g><path d="m79.8173065 129.8550568c-.2138672-.1060486-.0514679-.034729-1.019043-.6787109-.9844742-.8183594-1.794014-1.4953308-2.6762695-2.9799881-1.8093948-3.3145828-1.9279327-5.9109039-1.015625-8.8637695.2614746-.6767578.4406738-1.1108398.3674316-1.1577148-.0598145-.0405273-.3720703.3139648-.7775879.9716797-2.4577103 4.6371307-.3424606 10.8596573 4.0236816 13.1289139.2983398.1494141.5349121.2724609.7502441.3208008.8352051.2407227.9042969.1113281.958252-.0380859.0541993-.1499026.0625001-.3046877-.6110839-.7031252z"/><path d="m67.1666718 126.4610062c-.0378418-.9858398.2028809-1.796875.0498047-1.8676758-.1293945-.0722656-.6772461.6767578-.8657227 1.8037109-.2163086 1.1157227.0302734 2.4965897.4013672 3.2817459.6721191 1.4477539 1.4250488 1.9282227 1.7687988 2.1235352.3823242.1772461.4750977.0654297.5710449-.0620117s.1652832-.2583008-.0371094-.5581055c-.1353302-.2526245-1.8599624-2.0623779-1.8881835-4.721199z"/><path d="m27.506031 8.7495823c2.5412407-2.0427132 3.6735516-2.1487031 3.2893066-3.1972656-.1096191-.300293-.2216797-.5673828-.8884277-.5297852-2.2357273.258594-5.5827675 2.7665806-6.9978027 6.0947266-.7268066 1.6235352-.8283691 3.0585938-.5332031 3.140625.5708752.1739559 1.4134369-2.5353546 5.1301269-5.5083008z"/><path d="m74.1166229 6.7544651c3.3560104 1.8394327 4.0168915 3.0508375 4.8474121 2.2666016.2324219-.2192383.4309082-.4306641.0651855-1.0981445-1.3692856-2.1823092-5.232933-4.5540657-9.6074219-4.7978516-2.046875-.1171875-3.644043.3261719-3.6140137.6293945.0441591.6109576 3.4795762.3377619 8.308838 3z"/><path d="m59.9359627 51.4912796c-.2988281-.1376953-.5617676-.1889648-1.0583496.2446289-.2563477.2089844-.5761719.5390625-1.1264648.9345703-2.3744469 1.6854324-5.0693855 1.7814713-7.8210449.9384766-1.8652344-.5595703-3.3491211-1.3769531-3.5439453-1.1054688-.1833496.2363281.9658203 1.5566406 2.9084473 2.6142578 3.6336861 1.9856911 7.5185776 1.4297295 9.8557129-.8374023.6811523-.6655273.9794922-1.2666016 1.1159668-1.6782227.250244-.8442382-.0515138-.984375-.3303224-1.1108398z"/><path d="m99.3964081 18.1450901c.1193848-6.5097656-.137207-6.6508789-.4567871-6.6567383s-.5810547.1254883-.7004395 6.6357422c-.0656738 3.5668945.0529785 11.2270508.3725586 11.2329102s.7189942-7.6445313.784668-11.2119141z"/><path d="m107.556076 25.3325901c1.3188477-3.9853516 1.1003418-4.1499023.7971191-4.2504883-.3034668-.1005859-.5771484-.0986328-1.8959961 3.887207-.7226563 2.1835938-2.0273438 6.9516602-1.723877 7.0522442.3032228.1000977 2.1000978-4.5048809 2.822754-6.6889629z"/><path d="m108.1781464 35.9053421c.1079102.3007813 3.4404297-.6176758 4.9526367-1.159668 2.7597656-.9882813 2.7302246-1.2529297 2.6223145-1.5537109-.107666-.3007813-.2526855-.5244141-3.0124512.4643555-1.5122071.5415039-4.6701661 1.9477539-4.5625 2.2490234z"/><path d="m127.9624481 107.2051468c.0299072-.1298828-.0100098-.3999023-.3000488-.7001953-.2999268-.3295898-.8199463-.6196289-1.5899658-.8295898 0-.0302734-.0100098-.0600586-.0100098-.090332-.0300293-.159668-.1199951-.2900391-.6899414-.3696289-.5600586-.1303711-1.6800537-.090332-3.3000488-1.3300781-.8100586-.6201172-1.7199707-1.590332-2.7399902-2.9199219-2.6066437-3.3626709-3.6102905-7.8479462-7.2600098-13.0205078-2.8499908-4.0300598-6.415802-7.305481-11.0200195-9.0898438-.2509918-7.541481-.6514206-34.0241013-3.1899414-41.6396484 0-.0004883-.0002441-.0004883-.0002441-.0009766.0402298-.1399994.0151672-.2419891-.112793-.3359375-.2485352-.6225586-.4277344-.6333008-.6069336-.6035156-.0700684.0102539-.1401367.0302734-.2000732.090332-1.6854553-.9453392-12.0726547-1.8889694-14.0599365-2.050293-2.7299805-.2197266-5.9899902-.4399414-9.8701172-.5898438 1.3300781-3.5302715 1.6000977-8.2299786.1201172-13.459959-.6000977-1.9799805-1.6000977-4.2402344-3.4101563-6.1899414-5.0403824-5.4968328-12.6208687-4.432827-15.2799034.3901367-1.3782845 2.4661198-1.4500732 5.4401169-1.4500732 8.2797852.0100098 2.6401367.2800293 5.1601563.7600098 7.4101563.2900391 1.2895508.6501465 2.4799786 1.0600586 3.5498028-1.6400146.0498047-3.3300781.1298828-5.0700684.2299805 1.1501465-3.459959 1.3300781-7.9501934-.0799561-12.91992-.5999756-1.9799805-1.5999756-4.2402344-3.4100342-6.1899414-5.0407333-5.4968328-12.6209106-4.4329796-15.2800293.3901367-1.3780613 2.4661198-1.4499512 5.4398232-1.4499512 8.2797852.0100098 2.6401367.2800293 5.1601563.7600098 7.4101563.3900146 1.7597637.9300537 3.3496075 1.5400391 4.6899395-6.3764763.7528381-17.8918381 2.6365623-24.3933105 4.6425781-.9364939-2.6944733.0391078 33.7390671.2363281 38.9677734.8542485 22.6572266 1.3901372 23.1113281 2.0288091 23.0874023.6386719-.0244141 1.1386719-.5175781.2841797-23.1743164-.4445807-11.7924806-1.8400885-36.3867188-2.5263683-38.8046876.3469524.0176849.2533188.0030212.4023438.0009766.2131352.2460938.6994634.7158203 1.4299321 1.3891602 15.9928093 14.7201042 12.9272919 10.368782 27.5869141 24.2578125-4.6081467 4.6774521-26.5329208 36.3180618-25.8271484 36.8300781.6994457.5067673 23.5524406-29.6250687 26.8833008-35.8334961 2.9414063 2.7163086 6.0968018 5.3701172 9.770752 7.1738281 3.9271622 1.8577881 8.0146713 2.4522247 12.0131836.7978516 3.7014008-1.4220276 6.3840599-4.3814621 11.1436729-9.0117188 1.9657135 2.4955444 11.3181458 13.4265213 13.3973389 15.8364258-.8199463.8100586-1.539917 1.7402344-2.0998535 2.7602539-2.5672531 4.5790482-2.1123962 9.9727554-.920166 15.0400391.0500488.2397461.1101074.4697266.1601563.699707-23.4304657 1.5633011-30.509552 2.590332-65.0200195 2.590332-3.9799805 0-6.4400635.0200195-6.4500732.1899414 0 .2643814 8.5115395 1.0815353 21.9700928 1.3701172 23.4274025.460968 38.1570549-1.0035553 50.0399132-1.9399414 2.3964233 9.6324997 3.8735733 12.5068436 2.960083 15.7797852-.1768341.1768417-2.1584015 1.5462341-2.75 3.1601563-.2600098.6699219-.1601563 1.5996094.369873 2.1796875 3.1794434 3.7476959 19.4949646-1.5967865 23.9245605-3.0214844.2836914.4487305.5246582.7905273.7336426 1.0493164-1.4042511.9076004-1.9619827 3.5918198-.5341797 5.5087891 1.0790787 1.4299393 3.2160263 2.1539536 5.1716309 1.4345779 2.8203354-1.018692 3.6072006-4.8753357 1.645752-6.9169998-1.2920151-1.3231506-3.2308578-1.5174026-4.5267334-.8095703-.0838623-.2719727-.2149658-.6074219-.4002686-1.0166016 6.0882568-2.2495117 11.4064941-4.8183594 14.9855957-7.1879883 1.8100586-1.199707 3.1800537-2.3598633 3.9000244-3.3901367.3699951-.5097656.5500488-1 .5500488-1.3496094-.0100098-.340332-.1300049-.4902344-.1600342-.4902344-.0500488.0102539-.0100098.1801758-.0800781.4599609-.0698242.2802734-.2799072.6699219-.6699219 1.0898438-.7800293.8500977-2.1799316 1.8603516-4.0200195 2.9101563-3.6694336 2.1103516-9.088623 4.4394531-15.237793 6.4892578-.8799438-1.646286-3.2915421-5.436264-4.5262451-6.4174805.0013428-.0004883.0026855-.0009766.0040283-.0014648.3100586-.1201172.6201172-.2202148.9200439-.3300781 3.25-1.1201172 6.0999756-1.9599609 8.5599365-2.6103516 4.9200439-1.2900391 8.3200684-1.8198242 10.5800781-2 2.2700195-.1796875 3.3599854.0600586 3.7800293.2304688.4199219.1796875.5100098.25.6899414.1796875.070072-.0297853.1400183-.0600587.1600378-.1899415zm-73.3299522-84.4301739c.1098633-2.5297852.2399902-5.2797852 1.4699707-7.3496094 2.1268425-3.6771965 8.0463676-4.2083073 11.9499474.1796875 1.4699707 1.6298828 2.3300781 3.5703125 2.8599854 5.3203125.9400635 3.2397461 1.0899658 6.3398438.7700195 8.8798828-.1900635 1.4399414-.539917 2.7197247-1.0200195 3.8398418-.3499756.8598633-.7799072 1.6201172-1.25 2.2700195 0 .0102539-.0098877.0102539-.0098877.0200195-.130127.1699219-.2600098.3398438-.3901367.5.3235092-2.9115486-1.1767197-6.494175-4-8.2499981-1.5400352-1-3.4799767-1.2197266-5.0799522-.8100586-1.6199951.4101563-3.0299072 1.4399414-3.7199707 2.8100586-.3800049.7597656-.5599365 1.5302734-.6099854 2.2700176h-.0300293c-.2099609-.7998028-.4000244-1.6499004-.5500488-2.5498028-.339966-2.1704099-.4899904-4.5903318-.3898927-7.1303709zm9.6899376 16.4501934c.7173386-.6750946 1.1982422-1.6521187 1.2399902-1.8598633 1.0433502-1.8168945.3272476-4.9055557-.5900879-6.5800762-.3898926-.6899414-.9699707-1.4501953-1.8398399-1.9301758.3798828.1401367.7399902.3300781 1.0898399.5703125 3.7964935 2.5399266 4.4549027 9.4528752.1000977 9.7998028zm-5.9599572-5.9799804c.0100098.0800781.0400391.1601563.0699463.2397461-.0505295.101059-.1812935.2860565-.2600098.6201172 0 0-.0100098-.0097656-.0100098-.0200195.027443-.2188874.1432649-.6694184.2000733-.8398438zm2.8399659-1.91992c-.3933182-.091589-.7972984-.1479206-1.2000732-.090332-.119873.0200195-.2600098.0400391-.3999023.090332.1899414-.1699219.3798828-.3100586.5899658-.4199219.5799561-.3203125 1.1099854-.3803711 1.5699463-.2202148h.0100098c.2099609.1699219.4000244.3598633.5700684.5800781-.4054071-.0807648-.7639543-.0557613-1.1400148.0600586zm-5.6099854 1.1796856h.0100098v.0200195s-.0100098-.0097656-.0100098-.0200195zm-24.4300537-8.9799786c.1099854-2.5297852.2401123-5.2797852 1.4700928-7.3496094 2.1057205-3.6406765 7.9939995-4.2405329 11.9499512.1796875 1.4699707 1.6298828 2.3299561 3.5703125 2.8599854 5.3203125.9400635 3.25 1.0899658 6.3398438.7700195 8.8798828-.1700439 1.3100586-.4801025 2.4799786-.8800049 3.5200176h-.0100098c-.5212975 1.3783569-1.3182564 2.5753632-1.6500244 2.9399414.432888-2.5973244-.9959068-6.5048275-3.9799805-8.3598614-3.512207-2.2807751-9.0798378-.6136551-9.4100342 4.2700176-.0899658-.0102539-.1699219-.0102539-.2600098-.0200195-.1799316-.7104492-.3399658-1.4604473-.4699707-2.2499981-.3399658-2.17041-.4899902-4.5903319-.3900146-7.130371zm9.8399658 16.16992c.5100098-.4794922.9100342-1.0795898 1.1900635-1.7197266.9394455-1.8788872.4699707-3.1484718.4699707-3.6298828-.3343773-1.9853401-1.0915756-3.9633694-2.7999268-4.9999981 4.6572381 1.8072872 5.8767815 9.9784451 1.1398926 10.3496075zm-5.8898926-5.7294922c-.0760193.1001244-.1983109.3946075-.25.5498047 0-.0920525.0799522-.5072098.1899414-.7900391.0100098.0800781.0300294.1601563.0600586.2402344zm2.75-2.1704083c-.5248642-.1201382-1.0050507-.168478-1.5600586-.0097656.5819931-.5101852 1.3597679-.8904953 2.1400146-.6298828.210083.159668.4100342.3598633.5799561.5795898-.3736724-.0744419-.7652664-.0615997-1.1599121.0600586zm-5.5900878 1.9999981c-.0899658-.2797852-.1699219-.5600586-.2399902-.8598633.0800781.0200195.1600342.0302734.25.0498047-.0300294.2802735-.0300294.550293-.0100098.8100586zm4.2199707 6.9501954c-.1376801-.0235519-.5322838-.0446129-.6799316.0698242-.0500488-.0898438-.1500244-.2397461-.2800293-.4399414.3000488.1601562.6300048.2802734.9599609.3701172zm29.8164024 26.3671875c-2.1210938 2.0131836-4.367672 4.4780273-7.4435997 5.7138672-3.4118233 1.4459229-6.8658371.9188614-10.2521973-.6210938-3.458252-1.628418-6.6396484-4.2109375-9.6533203-6.9042969-11.6881637-10.390522-29.2637272-23.9976425-30.8624267-25.0053711 12.4693146-1.7224503 17.4919777-2.395031 24.5852051-3.0405273.1099854.2001953.2299805.4003906.3499756.5800781.4932518.9865112.6601753 1.0866318 1.6500244 2.1499023.5.5.8499756.8100586 1.0300293.9204102-.152607.3052139-.0081291.451786.3299561.6796875 3.142437 1.9574203 9.6999321.3322601 12.7600098-5.4399414 2.4399414-.1098633 4.8000488-.1699219 7.0300293-.2099609.0400391.0898438.0899658.1699219.1300049.25.3836098 1.7077484 1.4462166 3.0406494 2.9200439 3.7299805.1298828.1201172.2299805.2001953.2999268.2402344-.0100098.0200195-.0200195.0498047-.0299072.0698242-.0700684.1499023-.1000977.2998047.3598633.6098633 2.6083717 1.6243095 8.215023.792675 11.6000938-3.6298828.2999268-.3798828.5799561-.7900391.8399658-1.2299805 12.2012787.3132019 22.8898239 1.4715881 24.7600098 1.1201172 0 .0319405-.0026855.0866776-.0100098.1870117-3.4493637 2.3689308-9.6539841 8.6953812-12.9437256 12.2265625-.0923997.1022338-10.2662202 10.6349296-17.4499513 17.6035156zm5.0236816-1.6572266c-.0002441-.0004883-.0004883-.0004883-.0007324-.0004883 2.5304184-2.4637527 13.9086075-14.4010925 13.9960938-14.5014648 6.9680176-7.771534 9.2372208-9.7440491 11.3947754-12.1855469.1278076 2.8338394.7911072 8.5052032 1.369873 21.1176758.2399902 4.7700195.5500488 11.6396484 1.0200195 18.3300781-4.4945374-1.2335892-9.3842468-.5780563-13.2000732 2.1298828-3.7352371-4.0816269-10.4260712-11.252594-14.5799561-14.8901367zm40.8696289 57.2387695c.5871582.8125.5068359 2.1655273-.0969238 2.9584961-.5556641.8027344-1.519043.9594727-2.2419434.8432617-1.5009232-.275238-2.3562012-1.446701-1.7614746-3.6225586.0817871-.2231445.1252441-.3891602.1518555-.5336914.125-.0180664.2387695-.0737305.3544922-.1376953.2443848-.1347656.4602051-.2739258.4504395-.7055664 1.4308471-.1837768 2.6108779.4009857 3.1435546 1.1977539zm-6.651123-3.6381836c-2.4194336.7597656-4.9289551 1.4692383-7.4785156 2.0693359-12.1971664 2.8288803-13.9367828 1.0354004-13.8300781 1.1000977-.0390701-.1562881.3335419-.6175308.4400635-.7402344 2.9768677-3.4708481 13.4350052-7.7059021 18.0650635-9.3779297.0775527 1.4156647 2.02993 5.5639344 2.8034667 6.9487305zm6.6813965-12.140625c-2.5299072.6098633-5.4499512 1.4199219-8.7698975 2.5400391-5.5485687 1.8664093-12.9179688 4.851532-17.7000732 8.1801758.8888321-3.50737-.7213898-7.0360565-2.9299316-18.4199219-.2800293-1.5302734-.5700684-3.090332-.6700439-4.6503906-.2167282-3.0934525.1760178-6.3447113 1.7600098-9.0400391 4.0504532-6.9754868 16.9962997-9.2555008 26.2999268 3.7299805 3.6089935 4.9959259 4.5921249 9.3634872 7.6101074 12.9101563 1.1599121 1.3701172 2.25 2.3999023 3.3000488 3.0698242.0998535.0600586.1999512.1201172.289917.1704102-2.2899171.1396483-5.2799074.5795897-9.1900636 1.5097655z"/></g><g><g><g><path d="m107.5120468 97.6853485c-.1552734.0361328-.3105469.0205078-.6783447-.9125977-.0784912-.2373047-.2261963-.5136719-.383667-.8623047-.0777588-.1748047-.1629639-.3662109-.2563477-.5756836-.111084-.2016602-.2318115-.4208984-.3631592-.6591797-.5200195-.9487305-1.2966309-2.1821289-2.6507568-3.5322266-.7601318-.7143555-1.7626953-1.6259766-2.9952393-2.3691406-1.22229-.7524414-2.623291-1.3745117-3.9642334-1.769043-1.3414307-.4091797-2.6147461-.5195313-3.5393066-.5952148-.9239502-.0249023-1.5118408-.0292969-1.5233154-.1157227-.0109863-.0717773.5604248-.2202148 1.5148926-.3349609.9525146-.0634766 2.3010254-.0751953 3.7458496.2519531 1.4433594.3115234 2.9724121.8925781 4.3096924 1.6455078 1.3475342.7426758 2.4517822 1.6953125 3.2680664 2.4658203 1.4577637 1.4541016 2.2735596 2.8100586 2.7808838 3.8618164.1246338.2651367.2392578.5087891.3447266.7324219.0806885.2338867.1542969.4477539.2216797.6425781.1290283.390625.2384033.7021484.2718506.9707031.1851806 1.0556642.0521239 1.1191408-.1032716 1.1552736z" style="fill:var(--icon-surface,#fff)"/></g></g></g><g><g><g><path d="m112.6230087 104.1609344c-.2565918.1904297-.480957.3232422-1.262207-.7290039-.4281006-.5766602-1.1386719-1.96875-.8820801-2.1591797s1.3833008.8925781 1.8114014 1.4692383c.78125 1.0517578.5894775 1.2285157.3328857 1.4189453z" style="fill:var(--icon-surface,#fff)"/></g></g></g></g></g></g></svg>