<svg id="Layer_1" enable-background="new 0 0 135 135" height="512" viewBox="0 0 135 135" width="512" xmlns="http://www.w3.org/2000/svg"><g id="Medal"><g><g><g><g><path d="m54.4905739 73.5584946c-8.9309235.8205795-17.2958984 6.3413467-21.5617065 14.2304306s-5.0742741 18.0643921-1.5637894 26.3173981c6.0415688 14.203476 23.8065033 19.0242004 37.4002495 15.1123505 20.4820251-5.8940659 25.1821594-34.6047058 10.8349838-47.6979294-6.9298782-6.3241959-15.3145142-8.7618484-24.6664925-8.0141602" fill="#ffcb05"/></g></g><g><g><g><path d="m78.7679749 109.2749939c-.9839096-.1996994 1.8912964-7.5365753-2.963501-17.4785156-1.3643799-2.8100586-3.0129395-4.7875977-2.8740234-4.9057617.1354828-.1403656 3.6784363 3.2136841 5.6524658 9.109375 1.0034409 2.9376678 1.454567 6.3166122 1.2028809 9.5029297-.0405656.6465606-.3952714 3.9001769-1.0178223 3.7719726z" fill="#fff"/></g></g></g></g><g><path d="m115.5383453 10.6709681c-9.4068909-8.4289284-23.0611572-3.4679217-32.0876465-1.4692383-3.2342529.7084961-6.723877 1.2983398-10.3582764 1.1054688-10.8317031-.7377625-19.4439315-7.4718881-30.7210731-6.865234-12.8694515.851728-22.6020546 12.0075307-21.8747558 24.6040044.3701172 7.1034298 3.8997192 13.7362156 8.3050537 19.3842754 1.4290771 1.8300781 2.916626 3.4931641 4.3144531 5.2177734 2.7403564 3.310791 5.4354248 6.59375 8.4310303 9.4411621-1.0455322.2001953-2.5219727.5627441-4.1672363 1.0075684-.7696533.2407227-1.6252441.5405273-2.460083 1.0932617-2.4036102 1.5241776-2.8377419 4.9795227.3271484 8.2055664.4800529.5014114.6286011.6445084 1.34021 1.4853516.9217758 1.0886459 3.9901047 4.8346405 4.9315186 3.7451172.2150879-.2485352.3426514-.4833984-.2999268-1.3867188-.3427849-.4920959-2.9455223-3.9414978-3.7769775-4.8798828-.3251076-.3775406-.6367111-.6472473-1.0024414-1.0976563-1.2707024-1.5196304-1.9086952-3.2790985-.3806152-4.5263672 1.324604-1.0989914 3.5812492-1.6570206 6.1358643-3.0327148 6.1144562 5.6607285 13.1768646 8.5676727 21.1899414 6.5493164 5.5868568-1.441925 9.7202873-4.9771729 13.2077675-6.9511719.8054962 1.1497307 4.9944687 1.4429665 5.2362061 4.1342773.1013184.7851563-.2072754 2.0263672-.8863525 3.2734375-.1703262.327034-3.5671844 5.5824585-3.6447754 8.642334-6.4520187-4.6119919-14.2271004-6.2801132-21.1274452-5.3684082-1.1766357.2080078-1.2481689.3647461-1.236084.5239258.0739632.987175 7.8959312-.5002975 16.4176064 3.6289063 8.8384399 4.1721268 14.3196869 11.7694702 15.2467041 21.5395508 1.1310196 12.2863922-5.0851898 24.912735-16.706543 28.9785156-2.3787842.88134-5.1200867 1.2887192-6.0960732 1.4477615-.7058105.1274414-1.4324951.1381836-2.1551514.2148438-10.4771423.7284546-19.5638123-3.0824966-24.9797363-8.7978592-12.5838203-13.4155426-7.5020027-40.161705 14.4844971-46.1879883 2.2053642-.5565491 4.746624-.9127884 2.4473877-.7788086-.5894775.015625-1.4471436.137207-2.5509033.3242188-22.5472965 4.5511322-29.2619019 33.2228165-15.7873535 47.9487305 5.7236557 6.1995773 15.363678 10.3917007 26.5372314 9.6972733.7701416-.0742188 1.5422363-.0839844 2.2967567-.2128906 1.3753738-.2141724 3.9215927-.5600739 6.5648193-1.519043 18.741684-6.4384384 24.1372223-33.0242691 11.557373-47.1025467-1.4233398-1.59375-2.9102783-2.8527832-4.3690186-3.9348145 1.3846817-3.3418579 4.3400345-7.0163803 4.9411621-7.9660645 2.9769287-4.6333771.9503021-8.6217308-4.4313965-9.4111328 1.7562866-.85186 3.5453644-1.5563393 6.0141602-2.2524414 3.1340332-.8466797 4.9299316-1.097168 4.9123535-1.199707-.0054932-.0371094-.4580078-.0141602-1.3132324.0898438-13.076149 1.5752602-15.6787872 7.9941864-24.8435097 10.1679688-3.2373047.7480469-6.9373779.7460938-10.4610596-.4912109-1.5707397-.5703812-.7521553-.201889-2.6119385-1.0913086-2.2122993-.9562073-5.436161-3.5615616-7.1912842-5.2827148-2.9829102-2.8613281-5.6778564-6.2421875-8.4730225-9.703125-3.402895-4.2993431-11.5072536-12.8346672-11.9697266-23.6577129-.4237938-8.5708752 4.6219406-17.4634399 13.7601318-20.9599609 5.1081963-1.9487629 9.8535385-1.712882 15.1298828-.328125-11.283638 2.7772212-21.1330566 10.3795319-19.4086914 21.9179688.802906 5.8463802 4.2002029 11.0776424 7.623291 15.8476543 4.5099182 6.1416893 11.3625069 14.0050583 18.7313232 15.9799805 1.3317871.3916016 2.7769775.4458008 4.1917725.3457031 6.8664818-.6001015 12.4569206-6.6329155 18.9342079-8.4057617 10.4439697-3.0380707 28.634285.0156021 28.4180908-22.7045879-.0167236-2.3896484-.432251-4.6279297-.5611572-6.6425781-.2857056-4.4867554.1774445-9.911603-2.2591553-14.2148447 2.6469574.6286755 4.940506 1.6954851 7.0672607 3.5839844 12.7378922 11.1859407 5.9542313 36.7994881-11.9261475 42.4228516-2.9720459.9428711-5.359375 1.3393555-7.1604004 1.6826172-1.8076172.3276367-3.0544434.5512695-3.9006348.7392578-1.6948242.3730469-1.7991943.5483398-1.776001.7041016.0236816.1601563.1716309.2866211 1.8978271.1884766 3.4869461-.2029991 7.786705-.7287064 11.4177246-1.7490234 19.1275562-5.3025451 27.2039036-33.067081 12.9450687-45.6914067zm-34.7174072 39.7226553c-2.8762207.7456055-5.5229492 2.2109375-7.9094238 3.612793-8.1808929 4.8027878-12.3782082 6.7499161-20.1231728 1.1191406-6.2587776-4.5791359-13.5450096-14.2305603-16.2532959-19.6508789-4.5929699-9.1417103-3.2882195-16.7195778 4.8631592-22.5639648 8.6415443 1.1038198 17.3714828 10.1022806 28.4837685 10.1435556 15.0474854.487196 18.4953232-1.6505814 27.7983398-4.1044922 2.3893051-.6248608 5.071991-1.3555965 7.3676758-1.1303711 1.9162064.201189 2.5975113.724987 3.0697021.6762695-.0046387 1.416748-.0385742 2.9377441.0130615 4.5639648.0736084 2.137207.4151611 4.300293.3690186 6.5942383-.3343735 21.2987623-16.5296402 17.6577063-27.678833 20.7397452zm27.2923584-32.8220196c-1.4406357-1.4549618-4.1613998-1.722434-6.2161865-1.5354004-1.3746338.125-2.9049072.4287109-4.7331543.84375-8.5284119 1.9654598-11.4547958 4.1708794-27.2485352 4.0415039-10.2881203.3320484-19.694252-8.328968-27.819706-8.4956064 4.1177177-2.7547274 8.9590225-4.2941999 10.8299561-5.3061519 6.773201 2.0098252 12.7502785 4.9835401 20.0344276 5.4863276 11.6129913.6359377 22.4885712-6.1871219 33.4508057-3.9584961.0886231.1767579 1.6711731 5.7168952 1.7023926 8.9240733z"/><path d="m64.6706696 111.2779007c-.6591797-.0688477-1.8615761.121582-4.2159462.4487305-.0321045.0043945-.0697021.0097656-.1026611.0146484.807373-4.1909714.499279-20.4031143-.1367188-24.2563477.4005508-.7134781.2272263-.9605713-.032959-1.1948242-.840107-.7559662-1.5300446.1880493-9.6287842 7.7675781-1.5682373 1.4584961-2.8649902 2.6547852-2.6860352 2.9248047.4268341.6485214 7.7842064-3.6438446 11.5567627-8.3603516-.6230125 4.72892-1.3815231 19.6472931-.6364746 23.3422852-4.2359734.6054153-6.560379.7621536-6.5925293 1.1835938-.0543442.6840897 5.0235481 1.3710251 8.5679932.8725586 2.4924316-.3461914 3.7108192-.809082 4.2932167-1.1523438.5806885-.3603516.5297852-.6459961.4500732-.9550781-.0797119-.3095703-.1802978-.5830078-.8359374-.6352539z"/><path d="m21.825573 93.2910843c-1.4934082-.875-3.3757324-1.7163086-4.6140137-2.1303711-2.2600098-.7573242-3.4780273-.9277344-4.125-.8916016-.6507568.0458984-.7442627.3203125-.8238525.6298828s-.1257324.5966797.4020996.9516602c.5255127.3647461 1.628418.7734375 3.8049316 1.5029297 1.1931152.3989258 3.0910645.96875 4.7105713 1.4418945 1.6201172.465332 2.9720459.8154297 3.1148682.5263672.1405029-.2836914-.9711914-1.1611328-2.4696045-2.0307617z"/><path d="m18.492321 83.9585648c-2.0998535-1.4819336-3.3200684-2.0073242-3.9918213-2.1689453-.6809082-.1494141-.8431396.0908203-1.0003662.3691406-.1571045.2783203-.2739258.5449219.1779785 1.0458984.4442139.5136719 1.4729004 1.2290039 3.47229 2.6396484 5.3275623 3.7183304 6.9409447 4.951355 7.2324219 4.6704102.4565297-.4381485-2.7721004-4.3614655-5.8905029-6.5561523z"/><path d="m22.7688103 77.1260452c-.3060303.0917969-.5784912.1904297-.6293945.7338867-.0390625.5371094.1162109 1.5415039.8887939 3.3349609.4216309.9829102 1.2891846 2.4375 2.1918945 3.5283203.8966064 1.0986328 1.7922363 1.8378906 2.0482178 1.652832.2624512-.1879883-.1444092-1.2421875-.6419678-2.4907227-2.615572-6.4325178-2.822134-7.0715101-3.8575439-6.7592772z"/><path d="m82.5265045 101.4492874c-.0124512-.4692383.0678711-1.168457-.0904541-2.1679688-.0917892-.6619034-.1261368-1.6729431-.8013916-4.0146484-1.8719788-5.6788177-5.1704178-9.906662-9.7764893-12.8110352-3.1314926-1.9170837-4.0602341-2.0463333-5.6732178-2.6630859-13.0928535-3.8751068-26.1029205 3.4221268-29.8258095 16.2285156-3.5814667 12.6949234 4.0162697 26.0489426 17.0029297 29.2988281 14.2224846 3.5067825 27.554409-6.4651489 28.9311562-20.1186523.0993652-.878418.0618896-1.5703125.0822754-2.0336914.0153809-1.830452-.110817.2271805-.3138428 2.0068359-2.0049286 13.8864594-15.1707306 22.6947479-28.4797401 19.2797852-12.5631142-3.271286-19.5541573-16.1532745-16.1313477-28.1259766 3.618721-12.2627335 16.0220375-19.0654297 28.4085732-15.4794922 1.0057373.3828125 2.0140381.6601563 2.8967285 1.1342773.447998.2202148.8985596.4155273 1.3208008.6435547 5.2237625 3.1497574 8.4820251 6.5895233 10.7785645 12.8896484.7573624 2.3592529.7611694 2.9729233.9395752 3.8520508.2508316 1.1208878.2738113 3.0930405.5571289 3.0913086.079834-.0004882.1527099-.0673827.1745605-1.0102538z"/></g><g><g><g><path d="m76.0233459 114.4668884c-.1795654-.2875977-.2503662-.4643555.2774658-.9648438.1413574-.1450195.3885498-.3530273.6159668-.5517578.229248-.1933594.4440918-.3779297.5966797-.3261719.277092.0931931.2001953 1.0923386-.3771973 1.6787109-.7520751.7080079-.9633788.4150392-1.112915.1640626z" fill="#fff"/></g></g></g></g></g></svg>