<svg id="icon" enable-background="new 0 0 135 135" height="512" viewBox="0 0 135 135" width="512" xmlns="http://www.w3.org/2000/svg"><g id="Video_Clip"><g><g><g><g><g><path d="m61.5750885 83.5165024c.1347275 1.6706924 2.1121559 2.4410095 3.374649 1.3385239 1.7768631-1.5516739 3.9046707-2.7953949 5.9429245-4.0096664 4.328743-2.5788193 8.5539856-5.3313675 12.6622543-8.248642 1.2970276-.9210205 1.0825958-2.8965225-.3758087-3.5318222-3.9260483-1.7102203-9.4662399-4.901413-10.5684357-5.5142899-3.352211-1.8639946-6.2845764-5.0540161-9.3412247-7.3882942-1.2830124-.979805-3.1649933-.1054115-3.2449799 1.506958-.412155 8.3085212.8672716 17.3733711 1.5506212 25.8472328z" style="fill:var(--icon-accent,#ffcb05)"/></g></g><g><g><g><path d="m19.2141685 38.2606659c.8556767-.2268639 2.1709747-.1981506 2.7851791-.2636757 1.2206573-.1302261 2.4468613-.2082176 3.6741848-.2335701 1.5430145-.0318794 3.0880966.0192795 4.6290627-.0663948-.4098625-.0310783-.7801018.291378-.9394836.6702614-.7621994 1.8119011-.3300018 4.3602829-.2274799 6.2584496.1125031 2.0829659.0803089 4.1737328-.0962734 6.2522507.0184193-.2168159-6.7986069.0199051-7.385685.0681992-1.6921234.1391907-3.0302029.3607635-3.6905041-1.4562149-.5585728-1.537056-.1778145-3.6987724-.0953903-5.2824402.0640297-1.2304077-.2409172-4.8259697.7330208-5.6653671.1426372-.1229326.3574466-.2136461.6133689-.2814981z" style="fill:var(--icon-accent,#ffcb05)"/></g></g><g><g><path d="m124.4491272 53.0954781c.2927246-.8354378.3664017-2.148983.4795074-2.7562332.2247696-1.2068291.3978958-2.4232521.5186386-3.644886.1517944-1.535862-.697876-2.6781082-.4926071-4.2077408-.0009003.4110374.5676804.3529396.1775436.4823723-1.8656998.6189575-4.3727417-.0101433-6.2571793-.2599945-2.0679092-.2741737-4.1548462-.4046974-6.240799-.390316.2175903-.0014992-.548645 6.7764626-.6424561 7.3580055-.2703781 1.6761703-.5953522 2.9929619 1.1647568 3.7925873 1.4889526.6764336 3.6737366.4649658 5.2590179.50597 1.2316589.0318642 4.7926102.615551 5.7052231-.2901459.1336519-.1326485.2407992-.3397484.3283541-.5896187z" style="fill:var(--icon-accent,#ffcb05)"/></g></g><g><g><path d="m123.1157913 80.262146c.2927322-.8354416.3664093-2.1489868.4795074-2.7562332.2247696-1.2068329.3979034-2.4232559.5186386-3.6448898.1518021-1.5358582-.697876-2.6781006-.4926071-4.2077408-.0008926.4110413.5676804.3529434.1775436.4823761-1.8656921.6189575-4.3727341-.0101471-6.2571793-.2599945-2.0679092-.2741776-4.1548462-.4047012-6.240799-.3903198.2175903-.0014954-.548645 6.7764664-.6424484 7.3580093-.2703857 1.6761703-.5953598 2.9929657 1.1647568 3.7925873 1.4889526.6764297 3.6737366.4649658 5.2590179.5059662 1.2316589.031868 4.7926102.6155548 5.7052155-.2901459.1336595-.1326447.2407991-.3397446.328354-.5896149z" style="fill:var(--icon-accent,#ffcb05)"/></g></g><g><g><path d="m122.1157913 105.1788101c.2927322-.835434.3664093-2.1489868.4795074-2.7562332.2247696-1.2068253.3979034-2.4232483.5186386-3.6448822.1518021-1.5358658-.697876-2.6781082-.4926071-4.2077408-.0008926.4110336.5676804.3529358.1775436.4823685-1.8656921.6189575-4.3727341-.0101395-6.2571793-.2599945-2.0679092-.2741699-4.1548462-.4046936-6.240799-.3903122.2175903-.001503-.548645 6.7764587-.6424484 7.3580017-.2703857 1.6761703-.5953598 2.9929657 1.1647568 3.7925873 1.4889526.6764374 3.6737366.4649658 5.2590179.5059738 1.2316589.0318604 4.7926102.6155472 5.7052155-.2901535.1336595-.1326447.2407991-.3397446.328354-.5896149z" style="fill:var(--icon-accent,#ffcb05)"/></g></g><g><g><path d="m19.4641685 62.7606659c.8556767-.2268639 2.1709747-.1981506 2.7851791-.2636757 1.2206573-.1302261 2.4468613-.2082176 3.6741848-.2335701 1.5430145-.0318794 3.0880966.0192795 4.6290627-.0663948-.4098625-.0310783-.7801018.291378-.9394836.6702614-.7621994 1.8119049-.3300018 4.3602829-.2274799 6.2584457.1125031 2.0829697.0803089 4.1737366-.0962734 6.2522507.0184193-.2168121-6.7986069.0199127-7.385685.0681992-1.6921234.1391907-3.0302029.3607635-3.6905041-1.4562149-.5585728-1.5370483-.1778145-3.6987686-.0953903-5.2824402.0640297-1.2304001-.2409172-4.8259659.7330208-5.6653633.1426372-.1229325.3574466-.213646.6133689-.281498z" style="fill:var(--icon-accent,#ffcb05)"/></g></g><g><g><path d="m18.7141685 90.0106659c.8556767-.22686 2.1709747-.1981506 2.7851791-.2636719 1.2206573-.1302261 2.4468613-.2082214 3.6741848-.2335739 1.5430145-.0318756 3.0880966.0192795 4.6290627-.066391-.4098625-.0310822-.7801018.2913742-.9394836.6702576-.7621994 1.8119049-.3300018 4.3602829-.2274799 6.2584457.1125031 2.0829697.0803089 4.1737366-.0962734 6.2522507.0184193-.2168121-6.7986069.0199127-7.385685.0681992-1.6921234.1391907-3.0302029.3607635-3.6905041-1.4562149-.5585728-1.5370483-.1778145-3.6987686-.0953903-5.2824402.0640297-1.2304001-.2409172-4.8259659.7330208-5.6653595.1426372-.1229401.3574466-.2136536.6133689-.2815018z" style="fill:var(--icon-accent,#ffcb05)"/></g></g></g></g><g><path d="m127.0533676 54.3273277c-.7677917 15.2544746-1.6503372 58.6579323-.3619385 61.1777382-3.5112762-1.3115311-15.3075485-2.9702454-19.0494385-3.4560547 1.2386475-10.9539261 2.0872879-75.2037964 1.4580078-82.2885742 13.5090332 3.3018875 18.7839355 6.23489 19.1879959 5.3095703.0639648-.1464844.074707-.3066406-.5605545-.7202148-2.7691269-1.8006783-9.507103-4.139864-12.7075195-5.1430664-19.3502274-6.2926941-47.3572235-8.6668167-73.6010742-4.1948242-8.8363609 1.472868-19.5997868 4.1689701-24.9716816 5.7548828-.427002.1259766-.7849112.2358398-1.0847158.3320313-.0031738-.4331055-.0256348-.6899414-.0759277-.6958008-.0544434-.0063477-.1398926.284668-.2480469.8027344-.4370117.1484375-.6708984.2490234-.6604004.2924805.0095215.0410156.2197266.0322266.6054688-.019043-.1987305 1.0234375-.4647217 2.7285156-.7741699 4.9619141-.4802246 3.7519531-1.0786133 8.9477539-1.5124512 14.7050781-.9382324 11.5126953-1.2788086 25.2460976-1.2946777 33.9624062-.0234375 15.9111328.1960449 24.0166016.3950195 28.15625.2148438 4.1386719.5043945 4.3051758.8239746 4.3051758.6540527.0058594 1.1369629-.6791992 1.0957031-32.4521484.0161133-8.7021484.0966797-22.3793983.6137695-33.8725624.2233887-5.7485352.5717773-10.9472656.7756348-14.7177734.1486816-2.3085938.2424316-4.0732422.2563477-5.1035156 1.2751455-.1982422 3.7310781-.6801758 7.0324697-1.3476563 4.9240723-.980957 11.7131367-2.3984375 19.2712421-3.4467773 21.2577248-3.025629 45.2542686-2.2385178 67.1430664 3.0610352-1.0413971 7.2436447-3.2031937 71.3503418-2.5537109 82.1835938-24.8219528-3.0678101-50.1123123-2.4869003-72.3232422 1.1044922.4228516-2.5288086.8848877-9.8208008 1.5527344-30.8017578.5498047-17.2700195 1.2116699-54.3486366.5727539-54.3686562-.638916-.0205078-2.3366699 37.0249062-2.8864746 54.2949257-.6882324 21.6254883-.6702881 28.7290039-.3847656 31.0654297-13.0107422 2.1738129-20.9237118 4.5676422-20.8828125 4.7387695.2290583.9637146 37.2271271-10.1144333 94.6882324-3.8022461.0944824.1811523.197998.2060547.3054199.2084961.0968018.0024414.1911621-.012207.2841797-.1430664 13.6988983 1.5214386 20.0293045 2.796257 20.1894531 1.8994141.0192871-.1074219.0070801-.2163086-.225708-.3574219.5804443-.1928711 1.064827-2.597168 1.3055496-29.9785156.0610352-8.0483398.1572266-20.7080078.2382813-31.3584023.0483398-5.324707.0922852-10.1469727.1240234-13.6396484.0716095-13.8475078-1.1502228.9095303-1.7600174 13.5913082z"/><path d="m60.3167992 74.2609253c-.0510254-3.8398438-.1972656-9.8979492-.5251465-14.9965858-.3161621-5.0991211-.8557129-9.2143555-1.1704102-9.1943359-.3232422.0200195-.3625488 4.1499023-.4660645 9.2319336-.0913086 5.0820351-.2041016 11.1313515-.1530762 14.9873085.0822754 7.0361328.3913574 10.6357422.6826172 12.456543.3029785 1.8227539.595459 1.878418.9147949 1.8608398.1694336-.0097656.3282471-.0483398.458252-.3491211.486084.2905273 1.9370117-.2646484 10.0627403-5.6518555 2.5844727-1.7197266 6.5795898-4.5556641 9.8022461-7.1367188 2.4020996-1.9121094 4.3520508-3.6899414 5.1137695-4.5776367.5522461.1582031.706543.0063477.8271484-.1674805.3815918-.5498047.3918457-1.0454102-9.435791-7.9658241-2.6811523-1.909668-6.90625-4.8862305-10.40625-7.4790039-3.5109825-2.5761719-6.3251915-4.7387695-6.5441856-4.4951172-.2089844.230957 2.2304688 2.8359375 5.5117149 5.7651367 3.267334 2.9443359 7.3901367 6.1674805 10.0908203 8.0908241 5.4663086 3.8491211 8.0712891 5.4492188 9.3728027 6.03125-1.1191406.6254883-3.1425781 1.9663086-5.4863281 3.4692383-3.4367676 2.2192383-7.5480957 4.8212891-10.1289063 6.5385742-5.3549767 3.550293-7.6318321 5.2841797-8.5371056 6.215332.0061035-.078125.0136719-.1420898.019043-.2275391.1279299-1.8330077.0793459-5.3969725-.0026853-12.4057616z"/><path d="m25.5248051 37.9855309c4.4853516-.019043 4.5893555-.1899414 4.6005859-.5327148.0107422-.2958984-.0722656-.6435547-4.6166992-.6245117-1.2443848.0141602-3.1999512.1445313-4.833252.3574219-1.4208984.1811523-2.5942383.4135742-2.8666992.574707-.0145264-.0478516-.0310059-.0742188-.0498047-.0761719-.3383789-.0356445-1.105957 6.0605469-1.2087402 8.9233398-.2199707 5.2177734.0925293 5.3330078.3969727 5.3388672.1392822.0029297.2561035-.0195313.361084-.4140625 1.2265625.1425781 5.8276367-.1035156 8.1333008-.3242188 4.8674316-.4663086 4.9445801-.7338867 4.9140625-1.0517578-.0087891-.0917969-.029541-.1772461-.1660156-.2421875.1394043-.5683594.2629395-1.7436523.3691406-4.1899414.1105957-2.5449219.0888672-8.0175781-.2304688-8.03125s-.8151855 5.4365234-.9257813 7.980957c-.1013184 2.3320313-.0874023 3.5200195-.0081787 4.1269531-.7021484-.0166016-1.9246826.050293-4.0631104.2548828-2.2568359.2158203-6.6713867.8256836-7.9621582 1.2011719.1210938-.671875.2276611-1.9941406.3374023-4.5942383.0911865-2.5522461.2995605-7.7270508.1254883-8.7768555.3112793.1054688 1.489502.1152344 2.895752.1166992 1.6381836-.0058593 3.5688477-.0126952 4.7971192-.0170897z"/><path d="m16.9471684 76.8214722c.1392822.0029297.2561035-.0195313.361084-.4140625 1.2265625.1425781 5.8276367-.1035156 8.1333008-.3242188 4.8674316-.4663086 4.9445801-.7338867 4.9140625-1.0517578-.0087891-.0917969-.029541-.1772461-.1660156-.2421875.1394043-.5683594.2629395-1.7436523.3691406-4.1899414.1105957-2.5449219.0888672-8.0175819-.2304688-8.0312538s-.8151855 5.4365273-.9257813 7.9809608c-.1013184 2.3320313-.0874023 3.5200195-.0081787 4.1269531-.7021484-.0166016-1.9246826.050293-4.0631104.2548828-2.2568359.2158203-6.6713867.8256836-7.9621582 1.2011719.1210938-.671875.2276611-1.9941406.3374023-4.5942383.0911865-2.5522461.2995605-7.7270546.1254883-8.7768593.3112793.1054688 1.489502.1152344 2.895752.1166992 1.6381836-.0058594 3.5688477-.0126953 4.7971191-.0170898 4.4853516-.019043 4.5893555-.1899414 4.6005859-.5327148.0107422-.2958984-.0722656-.6435547-4.6166992-.6245117-1.2443848.0141602-3.1999512.1445313-4.833252.3574219-1.4208984.1811523-2.5942383.4135742-2.8666992.574707-.0145264-.0478516-.0310059-.0742188-.0498047-.0761719-.3383789-.0356445-1.105957 6.0605507-1.2087402 8.9233437-.2199706 5.2177734.0925294 5.3330078.3969728 5.3388672z"/><path d="m16.972559 103.9869995c.1394043-.0004883.2556152-.0258789.3505859-.4233398 1.2297363.1118164 5.8232422-.2490234 8.1228027-.5273438 4.854248-.5878906 4.9245605-.8574219 4.8862305-1.1748047-.0112305-.0913086-.0339355-.1762695-.1721191-.2373047.4612885-2.1059265.2643147-12.2132797-.1672363-12.2211914-.4274769-.0078506-.988512 9.8357849-.6306152 12.1274414-2.4146042.0050354-10.1087265 1.1595078-11.9851074 1.7568359.2986164-1.9307022.3425903-12.2604828.1281738-13.378418.3137207.0976563 1.4918213.078125 2.8977051.0439453 1.6376953-.046875 3.5673828-.1020508 4.795166-.137207 4.4836426-.1313477 4.583252-.3046875 4.5856934-.6474609.003418-.2958984-.0881348-.6416016-4.6306152-.5087891-1.2436523.0454102-3.1955566.2246094-4.8227539.4780273-1.4160156.2167969-2.583252.4790039-2.8515625.6464844-.015625-.0473633-.0328369-.0732422-.0515137-.074707-.3393555-.0273438-.9541016 6.0864258-.9851074 8.9506836-.0893556 5.2216798.2258299 5.3286134.5302733 5.3271485z"/><path d="m123.1351547 94.5167847c.0454102-.3164063-.019043-.5874023-4.859375-1.28125-2.2927246-.328125-6.8771973-.7900391-8.1091309-.7050781-.0863037-.3994141-.2019043-.4267578-.3413086-.4306641-1.3367615-.0364761-.2858276 15.5511246.1958008 14.2109375.2645264.1733398 1.4257813.4609375 2.8366699.7084961 1.6213379.2890625 3.5686035.5112305 4.8110352.5834961 4.5385742.2324219 4.6376953-.1113281 4.6408691-.4077148.0079269-.5554199-.8982239-.5624313-9.3615723-.9892578-1.4047852-.0644531-2.5822754-.1098633-2.8979492-.0195313.2378998-1.1088028.4211884-11.4371872.1643066-13.3774414 1.8228836.6236038 9.4651337 1.9594574 11.9438477 2.0180664-.4149323 2.3221359-.0549622 12.1368942.3654785 12.1381836.432373.0013199.8530655-10.0813599.434082-12.2143555.1395265-.0581055.1641847-.1425781.1772462-.2338867z"/><path d="m124.3011703 69.6691284c.045166-.3164063-.0192871-.5874023-4.859375-1.28125-2.2929688-.328125-6.8773193-.7900391-8.1092529-.7050781-.0863037-.3994141-.2020264-.4267578-.3414307-.4306641-1.3428116-.036644-.2851715 15.5493088.1958008 14.2109375.2646484.1733398 1.4259033.4609375 2.8366699.7084961 1.6213379.2890625 3.5688477.5112305 4.8112793.5834961 4.5383301.2324219 4.6376953-.1113281 4.640625-.4077148.0048828-.3422852-.0908203-.5180664-4.5705566-.7475586-4.5661087-.2290344-7.2083511-.3987274-7.6888428-.2612305.2383347-1.110817.4197769-11.4457245.1643066-13.3779297 1.8227081.6243057 9.4649353 1.9599457 11.9437256 2.0185547-.4069366 2.2773743-.059845 12.136879.3654785 12.1381836.3195801.0009766.5976563-5.4643555.6066895-8.0117188.0085449-2.4482422-.0596924-3.628418-.1723633-4.2026367.1394044-.0581054.1640626-.1425781.1772461-.2338867z"/><path d="m125.5350571 42.8668785c.0532227-.3149414-.0043945-.5874023-4.8256836-1.4023438-2.2839355-.3857422-6.8554688-.9619141-8.0891113-.9077148-.0761719-.4013672-.1911621-.4316406-.3303223-.4389648-.3041992-.0161133-.6240234.0766602-.779541 5.2963867-.1006012 2.7888527.2621613 9.8328705.6196289 8.9150391.2600098.1801758 1.4136963.4960938 2.8178711.7792969 1.6137695.3295898 3.5549316.6000977 4.795166.7036133 4.53125.3457031 4.6391602.0048828 4.6494141-.2915039.0217743-.5550156-.8500824-.5815773-9.3337402-1.2231445-1.402832-.0996094-2.5786133-.1743164-2.8964844-.0917969.2664948-1.1067238.7056732-11.4353676.4990234-13.3696289 1.7989349.6663246 9.4035873 2.1952934 11.8894043 2.3164063-.462944 2.2649193-.3632584 12.131218.0617676 12.1435547.4324112.0119019 1.1046524-10.0558243.739624-12.199707.1408691-.0546877.1676025-.1381838.1829834-.2294924z"/><path d="m13.5973158 28.374691c.2556152-.5859375-2.6574707-2.4208984-4.1113281-3.0546875-2.6533208-1.1567383-2.9160161-.7060547-3.1713872-.1201172s-.4069824 1.0854492 2.2463384 2.2416992c1.4538574.6342774 4.7810058 1.519043 5.0363769.9331055z"/><path d="m17.4249516 26.7921715c.5681152-.2929688-1.013916-4.4897461-1.9655752-6.3344727-1.7368164-3.3666992-2.2336426-3.199707-2.8017578-2.90625-.5681152.2929688-.9924316.6010742.7446289 3.9677734.9516601 1.8447266 3.4545888 5.565918 4.0227041 5.2729493z"/><path d="m20.6351566 22.2975426c.0827637.9052734.1740723 1.6914063.486084 1.7724609.3059082.0800781.7871094-.597168 1.1340332-1.5380859.8627567-2.2772961.5081692-4.5811005-.0197754-5.2421875-.2624512-.3144531-.5493164-.2739258-.8642578-.2197266s-.597168.1210938-.7536621.4672852c-.3540764.739212-.0490589 3.9470653.0175781 4.7602539z"/></g></g><g><g><g><path d="m24.8444595 48.070507c-.3195801.0053711-.5797119-.0512695-.628418-2.965332-.0266113-1.5966797.1751709-5.0273438.494751-5.0327148s.6358643 3.4169922.6624756 5.0136719c.0487061 2.9135742-.2093506 2.9790039-.5288086 2.9843749z" style="fill:var(--icon-surface,#fff)"/></g></g></g><g><g><g><path d="m24.9109879 69.8166046c-.3184814.0268555-.5783691.027832-.6629639-.9746094-.0463867-.5493164.1121826-1.75.4306641-1.7768555s.6761475 1.1298828.7225342 1.6791992c.0847167 1.0024415-.171753 1.0454102-.4902344 1.0722657z" style="fill:var(--icon-surface,#fff)"/></g></g></g><g><g><g><path d="m24.121315 98.8200226c-.3195801 0-.5787354-.0039063-.5787354-.1860352 0-.0996094.2591553-.3139648.5787354-.3139648s.5787354.2143555.5787354.3139648c0 .1821289-.2591553.1860352-.5787354.1860352z" style="fill:var(--icon-surface,#fff)"/></g></g></g><g><g><g><path d="m69.621315 68.5700226c-.2884521.1953125-.4506836.2285156-2.0324707-1.7368164-.4401855-.53125-1.1337891-1.3681641-1.7304688-2.0878906-.5946045-.7124023-1.0895996-1.3002968-.9870605-1.4252968.0994873-.1220703.788208.2490234 1.5513916.8325233.7659912.578125 1.5880127 1.3779297 2.052124 1.9360352 1.6634522 2.0678711 1.3876953 2.3217773 1.1464844 2.4814453z" style="fill:var(--icon-surface,#fff)"/></g></g></g><g><g><g><path d="m120.871315 50.3200188c-.3083496.0839844-.5697021.1103516-1.1162109-1.8935547-.2994385-1.0981445-.6921387-3.5224609-.3837891-3.6064453s1.2009277 2.2041016 1.5003662 3.3017578c.5465088 2.0039062.3079834 2.1142578-.0003662 2.1982422z" style="fill:var(--icon-surface,#fff)"/></g></g></g><g><g><g><path d="m117.6626968 80.8161163c-.3183594.0288086-.5783691.0288086-.6763916-1.0634766-.0537109-.5986328.0889893-1.90625.4073486-1.9345703.3183594-.0288086.6916504 1.2329102.7453613 1.8310547.0980226 1.0927735-.1579589 1.1386719-.4763183 1.1669922z" style="fill:var(--icon-surface,#fff)"/></g></g></g></g></g></svg>