<svg xmlns="http://www.w3.org/2000/svg" width="512" height="512" viewBox="0 0 135 135"><path d="M38.6 93.6a67 67 0 0 0 24.5 1.2l21.7-1.6c3.7-.3 7.6-.6 11-2 5.3-2.3 8.7-7.1 11.8-11.8q1.4-1.8 1.6-4a3 3 0 0 0-3-3c-1.6.2-2.5 1.8-3 3.2s-.8 3-2.2 3.8c-1.6.8-3.6.2-5.1-.6-1.6-.8-3.1-1.8-5-1.8-4 0-5.8 5-9.7 6.5-3.2 1.2-6.7-.5-9.7-2-3-1.6-6.7-3.1-9.8-1.7l-3.4 2.5a9 9 0 0 1-9.9 0c-1.2-.9-2.3-2.1-3.8-2.5a6 6 0 0 0-3.5.5c-2.6 1-5 2.8-7.7 3.5s-6.5-.3-7-2.9c-.3-1.8-1.9-5.4-2.4-1.5-.2 2 1.6 4.6 2.7 6.2 2.8 3.7 7.2 6.5 12 8M23 69c2.4 2.7 6.3 3.4 9.8 3.2s7-1.2 10.6-1.4q3.3-.1 6.6.1c9 .4 18-.8 27-1.9l12.9-1.7c3.9-.5 8-1 11-3.6s3.8-8 .7-10.3c-4.6 6-13 8-20.5 7.6s-15-2.8-22.6-3.2c-7.8-.5-15.5 1-23 2.6-2.2.4-4.3 1-6.4 1-1.7.2-4.5-.9-6-.5-3.4.9-2 6.2-.1 8.2" style="fill:var(--icon-accent,#ffcb05)"/><path d="M47.4 34.6A20 20 0 0 1 45.3 20a9 9 0 0 1 3-5.2 7 7 0 0 1 7.4-.2c2.3 1.4 3.7 3.9 4.2 6.5s0 5.3-1 7.8c-1 2.7-2.6 5.4-5.2 6.7-2.7 1.2-6.4.3-7.5-2.4m27.8-.5a20 20 0 0 1-2-14.6 9 9 0 0 1 3-5.2 7 7 0 0 1 7.4-.2 9 9 0 0 1 4.2 6.5q.6 4-1 7.8c-1 2.8-2.6 5.5-5.2 6.7s-6.4.4-7.5-2.3" style="fill:var(--icon-surface,#fff)"/><path d="M115.6 56.8a42 42 0 0 0-9.8-1q-1.3 0-1.2.3l-1-1.4q-.7-.5-.8-.3c.3-.5.5-1.7.6-2.4v-3.5c-.1-3-.8-7.6-4.2-13.4A33 33 0 0 0 87.7 24c1-6.5-2.1-11.3-6.1-12.7-2.3-.9-5-.7-7.1.9q-3 2.6-3.4 6.5-5-.5-10.7.2c-3-8.5-16-9.7-16.3 4.8C32.8 28.6 23.6 37 21 49.3c-.7 3.1-.9 6.4-.7 8.1-.6-1-2.5-3.1-4-7.1q-1.2-3.4-1.6-7.1l-.2-6.6c-.1-11 0-13.5-1-13.5-.3 0-.5 0-.8 1.7-.6 3.9-.8 13 0 18.6q.5 4 2.1 7.5t3.5 5.3q1.6 1.5 2 1.6l1.1 1.3q1.1 1.2 3.9 2.3c7.8 3 16-.2 23.3-1.5 14.3-2.4 28.1 4.5 42.8.7 5.4-1.3 9.1-3.9 11-6h.3c-.1.5 1.1 1.5.6 4.3-.8 3.5-4 5.1-7.4 6.2-12.2 3.6-26 4.7-39 5.3-6.8.2-14 .7-20.7.7-2.3 0-7-.2-9.2-.6-2.8-.5-5.4-2.1-6-4.7l.4-.7-.4.4.1-1.5c.6-2.3 2.5-2.7 2.5-2.8s-.8-.2-1.8.7a5 5 0 0 0-1.5 4.4C16.1 70 8.7 67.5 6.6 70.8c-.9 1.3-.6 3 1 3.6 1.3.4 2.5.2 2.8 1.1.3.8-.6 2.2-.6 3.6q.2 2.7 2.8 3.7c1.6.6 3.3 0 4.6-.7 2.4-1.4 4-3.4 6.5-3.8-1.7 3.8.2 6.6 2.6 9.9q1.2 1.7 3.1 3.3 3.9 3 9.4 4.5c5.8 1.6 14 1.6 20.9 1.5q0 .5.7 1.8c2.5 4.1 7.7 7.4 9.6 12 1.5 3.5 1 7 1.1 8.8-1.5.8-2.3 2.6-2.5 4.3s0 4.7.7 6.2q.3.8 1.2 1.3 1 .3 1.7 0 1.5-.6 2.2-1.7c3-4.3 1.2-9.8-.8-10.1h-.3c-.1.3.2.4.7 1.2a8 8 0 0 1-.6 8.2q-.5 1-1.5 1.3t-1.7-.7a15 15 0 0 1-.8-5.6q.3-2.7 1.8-3.9.2.7.5.6c.3 0 .6 0 1-1h.5l-.5-.3s1.5-4.7-.5-9.5-7.3-7.7-11-11.7L60 97.5h1.4a118 118 0 0 0 22.4-2.2l2.9 3c2.5 2.2 2.8 2.4 2.4 3.3-1 1.7-3.6 5.6-3.8 7.2-1.6-.3-3.6 1.2-4 4.5-.2 1.5 0 4.7.6 6.1q.5.8 1.2 1.3 1 .4 1.8 0 1.5-.6 2.1-1.6c2.7-3.9 1.6-8.7-.2-10q.8-.7 3.5-5 1-1.5 1.1-2.9 0-.7-.4-1.5-.9-1.2-1.7-1.6l-1.6-1.2-3-1.8q5.3-1.4 9.5-3 5.4-2 9.1-4.6c5.4-4 7-9 6.2-12.8 2 .5 4.2.3 5.3-1.5 1.7-2.5 0-6 1.1-8 .6-1 2-1 3.2-2.3a3 3 0 0 0 .4-3.3c-.5-1-2.4-2.4-4-2.8M85 21.1l.5.5v.8q-1-.8-2.6-.7-.8-.1-1.7.2c.2-.1 2.8-1.7 3.8-.8m-4 5.6q.3-.1.4.1c.2.6-.3 2.8-.4 3.4l-.5.3q-.2.1-.5-.4c-.5-.7.6-3 1-3.4m1.8-1.1q-.4-1-1.2-1l1-.5.2.7zm-4.7 7q-.8-.5-.6-1.6.5 1.1 1.6 1.6zm-2.6-19c1.5-1 3.6-1.1 5.3-.4 2.5 1 4.2 3.7 4.5 6.4-1.5-.8-3.3 0-4.6 1.1a14 14 0 0 0-5 8.6q-.6 1.7 0 3.4v.3a5 5 0 0 1-2-1.2 21 21 0 0 1-1.1-13c.4-1.9 1.3-4 2.9-5.2M51 33.1q.5 1.1 1.6 1.6h-1q-.8-.5-.6-1.6m7.7-8.8q-1-.7-2.3-.5-1-.1-1.7.2c1.3-1 3-1.8 4-.6zm-3.6 2.4 1-.5q.3.7.3 1.5-.5-1-1.3-1m-.1 2.2c.1.6-.4 3.4-.5 3.5l-.5.2c-.5 0-.8-.8-.7-1.3.1-1 1.1-2.3 1.2-2.4q.3-.2.5 0m-6.2-13.4c2.7-1.9 7-.9 9 3.1q.7 1.6.9 3l-1-.2c-2.6-.2-7.6 4-8.4 10-.7 2.4 0 3.2 0 3.5a5 5 0 0 1-2.3-1.2c-1.4-3.7-2-6.7-1.5-10.8.3-2.6 1.1-5.9 3.3-7.4m50.5 39.6c-15.4 9.8-34.2-.5-51.1 3-7.6 1.4-15 4.7-22.7 2.4-3-1-4.7-2.4-5.1-2.7.2-1 0-8.6 5-16.8A40 40 0 0 1 44 25.7q.3 4.3 2.2 7.5-.5 0-.3.6.4 1.6 1.9 2.4a7 7 0 0 0 5.2.7c2.1-.6 4.5-2.4 6.2-6 .5-1 1-1.8 1.5-3.5q.3-1 .3-2.3.2-2-.1-4.1 5.5-.6 9.8-.1-.3 5.9 2.2 10.4-.5 0-.3.7a4 4 0 0 0 1.9 2.3q1 .7 3 .9a7 7 0 0 0 4.5-1.3 14 14 0 0 0 5-7.6 31 31 0 0 1 14.7 22.3c.3 2.3.3 3 .3 4.6zM86 118.4q-.7.8-1.6 1.3T83 119c-.6-1-.9-4.2-.8-5.5.1-2 1.1-4.3 3.1-4.4q0 .5.4.6.3.2.7 0c1.5 1.7 1.9 5.8-.2 8.8m16-32.6a41 41 0 0 1-8.7 4.2A75 75 0 0 1 81 93.5c-5.3 1-12.2 1.7-19.6 2H50q-5.7 0-11-1-5.2-1.2-8.9-4-1.8-1.5-3-3C24.3 83.9 23 82 24 78.3c2.3-.1 1.8 2.5 2.8 5.4s4 4 7 3.2c3.3-1 5.5-4 8.2-5.3q2-1.1 3.8-.5c2.5.8 3.7 5.8 8 5.5 4.4-.3 6.8-4.7 10.2-5.6l.8-.1h.9c2.2.4 4.5 2.7 7 4.3 7.8 5 11.5-4.4 15.6-6.7 3.7-2.1 5.5 2.4 9.4 3q1.7.2 3.3-.7c3.8-2.7-.8-9.8 7-6.6 0 .6-1 8.1-6 11.6m15.5-24.2c-.4.6-1.9 1-2.8 1.9a6 6 0 0 0-2-1.4c-1.8-.6-1.9-.2-2 0 0 .6.1.6 3.6 1.8q-.7 1-.8 2c-.5 2.9 1.1 7.5-2.8 6.8q-1.5-.2-2.6-.8-.5-.5-.6-.3c-3.6-1.2-6.4-.1-6.9 3.6-.2 1.3-.1 3-1 3.7-.7.5-1.9.3-2.7 0-2.1-.9-4.6-4.3-8.6-3a7 7 0 0 0-1.2-2.5c-.9-1.4-1.1-1.3-1.4-1.2s-.5.4.5 1.8c.4.7 1.2 1.7 1.7 2.1-4.3 1.8-7 8.2-11 8.2q-1.5 0-3.1-1.1l-3.4-2.4q-1.7-1.4-4.4-2l-.6-.1h-.7l-1.4.1-2.4 1.1c-2.7 1.8-6 6-9 4.2-2-1.3-3.1-4.9-6.8-5.2l1.5-3.1c.8-2.2.5-2.3.2-2.4s-.5-.1-1.3 2l-.8 3.4c-5 0-7.9 5.2-11.6 6.4-1.3.4-2.8.2-3.7-.6-2.1-1.7-1.1-5.6-3.3-7.3-1.2-1-2.6-.7-4-.3-2.3.8-4 2.7-5.7 3.8q-1.9 1.2-3.5.7c-1-.3-1.9-1.4-1.9-2.4 0-1.2 1.1-2.8.3-4.3 2.1.3 4.3-.6 5-1.4q.3-.2 0-.5c-.2-.4-.6 0-2.2.5q-2.3.7-3.3.8l-.1-.1c-1.3-.9-3.3-.2-3.6-1.5q0-.7.2-1.3c1.6-2.6 9.3-.8 13-4.7.8 2.8 3.5 4.5 6.3 5.2 2.4.5 7 .8 9.5.9 6.7.2 14 0 20.9-.2q10.5-.3 18.4-1.2 13.6-1.6 21.1-4.2 4-1.2 6.1-3.5t2.2-4.4q.2-1.8-.3-2.9l1.2.3c.5.1 8.6 1.1 10.9 2.6q.8.5 1.1 1.2.2.8-.2 1.2"/><path d="M72.8 40.4q-.6 0-.8.6l-.6.9q-.4.7-1.6 1.1a5 5 0 0 1-2 .2q-1-.1-2.3-.7c-1.6-.6-2.9-1.4-3-1.1s.6 1.4 2.2 2.5q1.1 1 2.8 1.4 1.5.3 2.7 0-1 1.5-1.8 1.9-.7.3-1.2.2h-.6q-.5 0-.9.3t-.2 1q.3.4 1.2.8 1.1.5 2.7-.3 1-.4 1.6-1.5a6 6 0 0 0 1-3.2q.9-.8 1.2-1.5a3 3 0 0 0 .4-2c-.2-.8-.5-.7-.8-.6M40.9 17.9c.3 0 .6-.9 1.1-1.7 1.4-2.1 3.5-2.8 4-3.2q.4-.3.2-.8.1-.5-.5-.8-1.7-.2-3.1 1c-2.8 2.1-2.4 5.6-1.7 5.5m46.6-9.2c2.4 1.3 2.7 2.2 3.6 1.5q.5-.2.3-1c-.4-1-2.4-2.7-5-3.2-3-.6-5.2.7-5 1 .1.6 2.6-.1 6.1 1.7M38.3 40.5c-.3-.1-.5-.2-1 1-.3.5-.7 2-.4 2 .3.2 1.1-1 1.4-1.6.5-1.1.3-1.2 0-1.4m-5.7 15.1c-.3.2.4 1.2.8 1.6.7.7 1 .5 1.1.3q.6-.3-.3-1.1c-.4-.4-1.4-1-1.6-.8m28.5-4.8c-.3 0-.6-.1-.7.7-.1.4 0 1.3.2 1.4s.8-.8.9-1.2c.2-.8 0-.8-.4-.9m7.3-20.9q.6.4 1 0c.1-.3.3-.5-.5-1l-1-.3q-.5 0-.6.3c0 .3.8.7 1 1m26.1 8.7c-.3 0-.4 1.5-.3 2 .1 1.2.4 1.2.7 1.2s.6-.1.4-1.2c0-.7-.4-2-.8-2m-5.5 13.7c-.3-.1-.5-.2-1 .5q-1.3 1.1-1.1 1.3c0 .3 1.2.2 1.8-.5q.7-.7.5-1 0-.2-.2-.3m14.4 1.4c.2.2 3-3.6 5.3-8.9a62 62 0 0 0 4.5-16.3c.8-6.2.4-11.9 0-14s-.8-2.1-1-2c-1.4 0 0 5.3-1.3 15.7a83 83 0 0 1-3.8 16c-1.8 5.3-4 9.3-3.7 9.5m8-41.6c0-.1-.9-.8-1.3-2q-.3-1-.2-1.9 0-.7.5-1l.6 1.3q.5 1.7 1 1.4c0 1.3.6-1 1.7-2.9q.8-1.3 1.8-2.4.5-.6.8-.5l.2.4c0 .4-.4 1-1.2 2.8-.8 1.6-1.1 2.1-.8 2.4q.1.1.8-.5l.2-.3L117 8q1-.5 1.6 0 .5.6.2 1.2c-.6 1.5-3 1.3-2.9 2q0 .3.6.4 2.3 0 3.4-2c.7-1.5-.7-4-3.7-2.1a9 9 0 0 0 1.3-3q0-1.3-1-1.6-1.2-.1-1.9.8a12 12 0 0 0-2.5 5.2 8 8 0 0 0-.8-2.4q-.4-.7-1.2-.6c-1.1.3-1.2 1.3-1.3 2q-.2 1.5.5 2.4c.7 1.4 2 1.9 2 1.7m5.5 2c-1.9 0-2.7-1.3-3.1-.9q-.2 0 0 .6c1.1 1.6 4 2 5.1 1 .8-.5.6-1.9-.5-2.3q-1.1-.4-1.6-.4h-.7l.5.4c.5.3 1.7.5 1.8 1.2l-.1.3c-.2.2-1 .2-1.4.2M9 21.6c1.1 1.5 2.7 1.9 2.8 1.7s-1.3-.7-2.2-2.1c-.7-1.2-.9-2.8-.5-3.3l.3-.3q.3 0 1 .7c1.6 1.5 2 2.4 2.5 2.1q.2 0 0-.8l-1-1.2c0-.5-.2-1.6.4-3q.5-1.2 1.5-2l.8-.2c.5.1.5 1.3.5 2 0 2-.5 3.2 0 3.4q.1.1.6-.6c.4-1 2-2.5 2.9-2.2 1.7.5-1.1 3-1.4 3.8v.2l.1.2q0 .2.7-.1l.4-.3c3.6-.7 3.2 3.5-1.4 3.2-1.2 0-1.8-.4-2 0-.3.5 2.2 1.8 4.9.7 3-1.3 2.3-5.1-.8-4.7.8-1 1.6-2.2 1-3.2s-2.5-1.4-4 .5q.3-1.5 0-2.8-.4-1-1.2-1.2c-2-.4-4.3 3-3.4 5.8q-1-1.4-2-1.5c-1 0-1.9.9-1.7 2.5Q8 20.5 9 21.6m114.1 28.7c-.3-.1-.5-.1-1.6 1.9l-1.2 2.1q-.8 1.3-.7 1.5.3.1 1.3-1l1.6-2c1.2-2.2.9-2.4.6-2.5M127 57c1.8-.6 1.7-.9 1.6-1.2s-.2-.5-2 .1c-1 .4-3.1 1.4-3 1.7s2.3-.3 3.3-.6m-.1 5.6c-1.2-.3-3.9-.7-4-.3 0 .3 2.5 1.2 3.7 1.5 2.2.5 2.3.3 2.4 0 0-.3 0-.6-2.1-1.2M33.1 98.4l-1.7-.5a20 20 0 0 1-8-5.2c-1.5-1.5-2.4-3-2.5-3-.1.1.5 1.8 2 3.6a17 17 0 0 0 4.9 4.2 15 15 0 0 0 5.1 1.7c.9 0 .9 0 1-.2q.2-.2-.8-.6m-9.8-.3c-.9-.8-3-2.3-3.2-2s1.5 2.1 2.4 2.9c1.7 1.5 1.9 1.3 2.1 1s.4-.4-1.3-1.9"/><path d="M76.2 67q.2 0-.8.5t-5.7.8c-1.8 0-4.7-.3-7-1s-4-1.5-3.9-1.7l4.1.9c2.3.5 5 .6 6.8.6 3.1 0 4.7-.4 5.5-.4q1.2 0 1 .2" style="fill:var(--icon-surface,#fff)"/><path d="M69.8 66.2q.2.2 0 .5t-1.6.6l-2-.1q-1.2-.3-1.1-.7l1.2-.1q1 0 1.7-.3l1.5-.2q.3 0 .3.3" style="fill:var(--icon-surface,#fff)"/></svg>