<svg xmlns="http://www.w3.org/2000/svg" width="512" height="512" viewBox="0 0 135 135"><path d="M33.6 71.6a1 1 0 0 1 1.2 1.2l-.5 10.7a1 1 0 0 0 1.3 1.1l6.5-1.2a1 1 0 0 1 1.3 1.3q-.6 3-.4 6.2-.2 1.2-1.2 1.2l-4.5-.5a1 1 0 0 0-1.2 1.1l.5 7.2a1 1 0 0 1-1.4 1.1c-2-.6-4.2.2-6.3 0a1 1 0 0 1-1-1.2c.5-2.3.7-5.8.5-8.2q-.2-1.1-1.3-1-3.3.8-6.6.9a1 1 0 0 1-1-1.4q.6-2.6.3-5.2a1 1 0 0 1 1-1.2l6.2.2a1 1 0 0 0 1.1-1.3l-.6-4c-.2-1.5-1.4-4.9-.2-6 .8-.8 2.5-.6 3.6-.7q1.4 0 2.7-.3m73.1 7c2.6.8 3.6 4.5 1.8 6.5s-5.6 1.4-6.7-1.1c-1-2.5 1.3-5.7 4-5.6m-8.7 9.4c2.6.8 3.7 4.5 1.8 6.5s-5.6 1.4-6.6-1.1 1.2-5.7 3.9-5.6m19.3.9c2.6.8 3.6 4.6 1.8 6.6s-5.6 1.3-6.6-1.2 1.2-5.7 3.9-5.5m-9.2 8.1c2.6.8 3.6 4.6 1.8 6.6s-5.6 1.3-6.7-1.2c-1-2.5 1.3-5.7 4-5.5" style="fill:var(--icon-accent,#ffcb05)"/><path d="M42.6 51.4c-1.4-2.2-2-5-1-7.5 1-2.4 4-4 6.3-3 2 .8 3 3 3.3 5.2.2 2.6-.7 5.6-3 7-2.3 1.2-5.9 0-6.2-2.6m48.5 2c-1.3-2.2-2-5-1-7.5 1-2.4 4-4 6.4-3 2 .8 3 3 3.2 5.2.3 2.6-.6 5.6-3 7-2.2 1.2-5.8 0-6.1-2.6" style="fill:var(--icon-surface,#fff)"/><path d="m120.6 67.9-1.3-1.2c-.2.2 8.2 8.1 9.7 21.6a29 29 0 0 1-1 12 25 25 0 0 1-21.1 17.2c-5.2.3-10.8-1-15.3-4.2-7.8-5.6-6.9-12.2-10-18.5-4.3-8.9-14.4-6.8-19.7 1-4.6 6.6-5.8 14.8-16.7 19.6-16.4 7-32.6-3.6-35.8-20-.7-3.6-.4-6.1-.2-8.5 1-9.1 5.6-16.5 12.4-22.5q4-3.2 8-5.8c4.5-2.8 8.5-4.3 12.8-5.6 2.3 2.5 7 2.3 9.1-2.1l2.5-.4c11-1.5 23.6-1 35.5 1.7q0 .4.6 1.6c1.5 2 5 2.8 7.5.7 7 2.3 12.1 5 18.2 9.5l1.6 1.3c1.6 1.5 1.8 1.5 2 1.4 0-.1 0-.4-1.4-2l-2.6-2.5-1.3-1c-6.3-5-13-7.3-15.2-8.2 3.5-5.2.1-13.7-5.9-12-3.6 1-5.6 4.8-4 9-1.9-.4-4.2-1-8.5-1.5q.2-.2.1-1.4 0-1.1-1.3-3a11 11 0 0 0-8.3-4.8 35 35 0 0 0 1.2-6.8c.2-2.4.2-5.4-1.1-8.5-2.8-6.1-9-8.9-14.1-5.8-4.9 2.8-7.3 9.5-11.4 13.3a19 19 0 0 1-8.8 5 12 12 0 0 1-13.1-5c-2.2-3.8-.6-7.3-1.7-11.2-1-3.8-3.9-5.9-7.8-4.7-3.4 1-7 4.4-9.6 1.6L3.9 16l-.1-.5-.2-.2h-.2q-.3.1-.4.7-.1.8.5 2c.5.7 1.4 1.6 3 1.9 4 .7 8.2-4 11.3-2.2q1.5 1 2 3.2c1 3.4-.7 7 2 11.7s9 7.8 15.6 6.2c3.5-.9 7-3 9.7-5.8 4.3-4.2 6.6-10.7 10.8-13.2 4.4-2.8 9.5-.2 12 4.7 1.3 2.7 1.5 5.6 1.4 8q-.1 3.6-.5 5.6l-.1 1.2h-1.6a11 11 0 0 0-8.3 6.5q-.5 1.5-.4 1.9l-8.2.8.1-.6q.2-1.6-.3-3.5c-1.7-5.9-7.7-6.1-10.5-2-1.6 2.4-1.3 5.7.3 8.1l-.2.4a54 54 0 0 0-28.9 20 34 34 0 0 0-6 17.5c-1.4 20.7 18.7 37.9 39.3 29 11.8-5.2 13.3-14.2 17.6-20.5 3.1-4.7 9.4-8 14-4.5 4 3.2 4.2 10.6 7 15.6 4.3 7.7 13.6 11.6 22.4 11 10-1 19.1-8.6 22-18.4q1.8-6.7 1-12.4-1.4-10.8-9.4-20.3M94 51.4q-.6.3-1-.3-.3-.6 0-.7c0-.4 1.3-.4 1.3.3zm-3.3-7c1.4-1.6 3.8-2.4 5.5-1 1.6 1.5 2 4.2 1.5 6.4-.6-2.5-4-3.6-6-2.1q-1.5.8-2 2.2c-.3-1.8-.2-4 1-5.4m-29.2 1.8c3.8-5.6 11.3-6.6 16-.9q1.2 1.5 1.4 2.3l.5.7c-6.4-.8-13-1-18.8-.6zm-16.9 6.1h1l.3.2q-.8 0-1.3-.2m2.1-2-.3-.1-.1-.6v-.1q0-1 .8-1 0 1-.4 1.8m-4-7c1.4-1.6 3.9-2.4 5.5-1 1.2 1.1 1.7 3 1.7 4.6q-1-1-2.3-1.2c-2.6-1.9-5.5 1.5-4 4.6l-1.2.3-.6-1.7c-.4-1.9-.3-4 1-5.5"/><path d="M42 82.7 35.7 84q-.6.1-.8-.4c.1-4.2.2-9.7.1-11.1q-.3-1-1-1l-.4.1.4.2q.5 0 .6.7c0 .7-1 10.6-.8 11.3 0 1 1 1.7 2 1.4l6.4-1q.4-.1.4.4c-1 5.4-.4 6-.6 6.5 0 .2.2.1-4.6-.5a2 2 0 0 0-1.8.8c-.7.8-.5 1.5-.5 1.7l.4 6.8h-.6l-.7-.1H33c-1.4 0-4 .4-4 .2s.8-3.6.6-8.5c0-1-1-2-2-2h-1.1c-2 .5-3.7.7-5.9.8 0-.2.7-2.5.3-5.5l6 .2c1.3 0 2.5-1.1 2.3-2.6-1.1-6.6-.7-4-1.3-6.4-.1-.7-.5-2.4 0-2.9s2.3-.3 3.3-.5c2.4-.5 2.5-.7 2.4-1 0-.2-.1-.4-2.5-.4-1.1.1-2.9-.3-4.2.6-2 1.3-.7 5-.4 7l.5 4c-6.6-.3-6.3-.3-6.7-.2a2 2 0 0 0-1.7 2.4q.3 3.3-.3 5.1c-.2 1.3.9 2.5 2.2 2.5 3.4 0 5.1-.5 6.8-.8.2 4.2-.5 7.6-.5 7.7-.3 1.4.7 2.7 2 2.7 2 0 4.5-.6 5.9-.2h.3a2 2 0 0 0 2.6-2.2l-.5-7v-.1l.1-.2 4.4.5a2 2 0 0 0 2-1q.4-1 .2-1.8c-.1-3.6.5-5.3.4-6a2 2 0 0 0-2.2-1.5m51.3-12.2c.6-2 1.4-6 1.2-7.2q.3 0 .3-.2c.1-.3.2-.6-2-1.6l-2.2-.9a71 71 0 0 0-44.6.2c-.4-1.1-.8-1.1-1.1-1-.7 0-1.2.2-.2 5.9.8 4.1 3.1 12.8 3.2 8l6.2-.4C77.7 71 90 75.6 90.2 74.6a74 74 0 0 0-42.4-2c-.1-3.2-.8-8.4-1.6-11.3 1.2-.2 6-1.2 10.6-1.6 20-2 33.7 3.3 37 3.6-.8 1.2-2.1 4.7-2.7 6.5-1.2 4.2-.7 4.4 0 4.6.5.2 1 .2 2.2-4m15.1 8.7c-1-.7-1.7-.6-1.7-.5l1 1.2q1.1 1.2.9 3.2a2.6 2.6 0 0 1-2.6 2.2q-2 0-2.8-1.2c-.9-1.1-.4-2.5.1-3.3q1-1 1.5-1.3 1-.4 1-1l-.2-.4q-.2-.2-1.2-.2c-3.2.5-5.3 4.8-3 7.7 2.5 3.2 8.6 2.3 8.8-2.3 0-1.9-.9-3.4-1.8-4m-9.5 9.1c-1-.7-1.8-.6-1.8-.5l1.1 1.2q1 1.2.8 3.2a3 3 0 0 1-2.5 2.2q-2 0-2.9-1.2c-.8-1.1-.3-2.5.2-3.3 1.1-1.7 2.3-1.3 2.4-2.3l-.2-.4q-.1-.3-1.2-.2c-3.1.5-5.2 4.8-3 7.7 1.8 2.2 5.7 2.6 7.7.4 1.8-1.8 1.4-5.3-.6-6.8m18.3.7c-.9-.7-1.7-.6-1.7-.5l1.1 1.2q1 1.2.8 3.3a3 3 0 0 1-2.5 2.1q-2 0-2.9-1.1c-.9-1.2-.4-2.6.2-3.3 1.1-1.7 2.3-1.4 2.4-2.3l-.2-.5q-.2-.3-1.2-.2c-3.1.5-5.2 4.9-3 7.7 2.5 3.3 8.6 2.2 8.8-2.3.1-1.9-.8-3.4-1.8-4M107.1 97c-1-.7-1.7-.6-1.7-.5l1.1 1.2q1 1.2.8 3.3a3 3 0 0 1-2.5 2.1q-2 0-2.9-1.1c-.9-1.2-.4-2.6.1-3.3 1.2-1.7 2.4-1.4 2.5-2.3q0-.3-.2-.5c-.6-.4-2.5-.3-4 1.5s-1.5 4.3-.2 6c2.5 3.3 8.6 2.3 8.8-2.3.1-1.9-.8-3.4-1.8-4M61.2 77.3c-.6 0-1 2.8-1 4 .2 2.3.7 2.3 1.3 2.3s1.2-.1 1-2.4c0-1.2-.7-3.9-1.3-3.9m7.6 1.1c-.7 0-1.2 2.7-1.2 4 0 2.2.6 2.3 1.2 2.3s1.2 0 1.1-2.3c0-1.3-.5-4-1.1-4m8.7 0c-.7.1-.9 2.7-.7 3.9.3 2.1.8 2.1 1.4 2s1.2-.2.9-2.3c-.2-1.2-1-3.6-1.6-3.6m43.8-16.5c2.7 3 4.1 6.3 4.7 7.2q.7.9 1 .6.6 0 .6-1.1a14 14 0 0 0-2.5-5.6c-3.8-5.3-9.2-7-9.4-6.6s2.5 1.8 5.6 5.5m5.8-7.2c-1.2-1-2.4-1.5-2.6-1.2s1.1 1.6 4 5.8c1.8 2.7 2 3.4 3 3q.5 0 .5-.8c-.2-1.5-2-4.7-4.9-6.8M10 64.8c.3-.5-1.5-3-2.5-3.9-1.9-1.7-2.3-1.4-2.7-1-.5.5-.8 1 1 2.7 1.1 1 3.7 2.6 4.1 2.2m2.9-3.2c.6-.4-.6-3.4-1.3-4.8C10 54.4 9.7 54.6 9 55s-1 .7.4 3c.7 1.4 2.7 4 3.3 3.7m3.8-3.1c.6 0 .6-3 .3-4.3-.4-2.4-1-2.4-1.5-2.3-.7.2-1.2.3-.7 2.7.2 1.3 1.2 4 1.9 4"/></svg>